<svg xmlns="http://www.w3.org/2000/svg" xmlns:xlink="http://www.w3.org/1999/xlink" width="500" zoomAndPan="magnify" viewBox="0 0 375 374.999991" height="500" preserveAspectRatio="xMidYMid meet" version="1.0"><defs><g/><clipPath id="4ab87225dc"><rect x="0" width="315" y="0" height="144"/></clipPath></defs><g transform="matrix(1, 0, 0, 1, 39, 119)"><g clip-path="url(#4ab87225dc)"><g fill="#95d600" fill-opacity="1"><g transform="translate(1.557851, 108.248489)"><g><path d="M 66.296875 -85.734375 C 70.609375 -85.734375 74.570312 -84.835938 78.1875 -83.046875 C 81.800781 -81.265625 84.664062 -78.753906 86.78125 -75.515625 C 88.90625 -72.273438 89.96875 -68.660156 89.96875 -64.671875 C 89.96875 -54.117188 85.191406 -47.472656 75.640625 -44.734375 L 75.640625 -44.234375 C 86.523438 -41.742188 91.96875 -34.597656 91.96875 -22.796875 C 91.96875 -18.316406 90.863281 -14.351562 88.65625 -10.90625 C 86.457031 -7.457031 83.445312 -4.773438 79.625 -2.859375 C 75.800781 -0.953125 71.609375 0 67.046875 0 L 9.21875 0 L 9.21875 -85.734375 Z M 36.765625 -52.34375 L 55.703125 -52.34375 C 57.523438 -52.34375 59.039062 -52.984375 60.25 -54.265625 C 61.457031 -55.554688 62.0625 -57.15625 62.0625 -59.0625 L 62.0625 -60.3125 C 62.0625 -62.132812 61.4375 -63.691406 60.1875 -64.984375 C 58.9375 -66.273438 57.441406 -66.921875 55.703125 -66.921875 L 36.765625 -66.921875 Z M 36.765625 -19.9375 L 57.6875 -19.9375 C 59.519531 -19.9375 61.035156 -20.578125 62.234375 -21.859375 C 63.441406 -23.148438 64.046875 -24.753906 64.046875 -26.671875 L 64.046875 -27.90625 C 64.046875 -29.820312 63.441406 -31.421875 62.234375 -32.703125 C 61.035156 -33.992188 59.519531 -34.640625 57.6875 -34.640625 L 36.765625 -34.640625 Z M 36.765625 -19.9375 "/></g></g></g><g fill="#95d600" fill-opacity="1"><g transform="translate(98.500964, 108.248489)"><g><path d="M 90.59375 -59.4375 C 90.59375 -54.207031 89.179688 -49.472656 86.359375 -45.234375 C 83.535156 -40.992188 79.421875 -37.878906 74.015625 -35.890625 L 93.078125 0 L 62.1875 0 L 46.984375 -31.28125 L 36.765625 -31.28125 L 36.765625 0 L 9.21875 0 L 9.21875 -85.734375 L 61.6875 -85.734375 C 67.832031 -85.734375 73.082031 -84.546875 77.4375 -82.171875 C 81.800781 -79.804688 85.082031 -76.609375 87.28125 -72.578125 C 89.488281 -68.554688 90.59375 -64.175781 90.59375 -59.4375 Z M 62.546875 -58.3125 C 62.546875 -60.5625 61.796875 -62.429688 60.296875 -63.921875 C 58.804688 -65.421875 56.984375 -66.171875 54.828125 -66.171875 L 36.765625 -66.171875 L 36.765625 -50.34375 L 54.828125 -50.34375 C 56.984375 -50.34375 58.804688 -51.109375 60.296875 -52.640625 C 61.796875 -54.179688 62.546875 -56.070312 62.546875 -58.3125 Z M 62.546875 -58.3125 "/></g></g></g><g fill="#95d600" fill-opacity="1"><g transform="translate(195.444077, 108.248489)"><g><path d="M 96.953125 0 L 63.546875 0 L 47.71875 -26.671875 L 47.234375 -26.671875 L 31.40625 0 L 0.5 0 L 31.15625 -45.359375 L 3.484375 -85.734375 L 36.765625 -85.734375 L 49.71875 -63.796875 L 50.21875 -63.796875 L 63.296875 -85.734375 L 94.078125 -85.734375 L 66.296875 -45.234375 Z M 96.953125 0 "/></g></g></g><g fill="#ffffff" fill-opacity="1"><g transform="translate(9.230257, 137.108069)"><g><path d="M 2.203125 0 L 2.203125 -17.953125 L 4.3125 -17.953125 L 10.234375 -9.234375 L 16.15625 -17.953125 L 18.21875 -17.953125 L 18.21875 0 L 15.65625 0 L 15.65625 -12.65625 L 10.953125 -5.671875 L 9.5 -5.671875 L 4.796875 -12.65625 L 4.796875 0 Z M 2.203125 0 "/></g></g></g><g fill="#ffffff" fill-opacity="1"><g transform="translate(50.142709, 137.108069)"><g><path d="M 0.890625 -8.984375 C 0.890625 -10.273438 1.128906 -11.484375 1.609375 -12.609375 C 2.085938 -13.742188 2.753906 -14.738281 3.609375 -15.59375 C 4.472656 -16.445312 5.460938 -17.113281 6.578125 -17.59375 C 7.703125 -18.070312 8.914062 -18.3125 10.21875 -18.3125 C 11.507812 -18.3125 12.71875 -18.070312 13.84375 -17.59375 C 14.976562 -17.113281 15.972656 -16.445312 16.828125 -15.59375 C 17.679688 -14.738281 18.347656 -13.742188 18.828125 -12.609375 C 19.304688 -11.484375 19.546875 -10.273438 19.546875 -8.984375 C 19.546875 -7.679688 19.304688 -6.46875 18.828125 -5.34375 C 18.347656 -4.226562 17.679688 -3.242188 16.828125 -2.390625 C 15.972656 -1.535156 14.976562 -0.867188 13.84375 -0.390625 C 12.71875 0.0859375 11.507812 0.328125 10.21875 0.328125 C 8.914062 0.328125 7.703125 0.0859375 6.578125 -0.390625 C 5.460938 -0.867188 4.472656 -1.535156 3.609375 -2.390625 C 2.753906 -3.242188 2.085938 -4.226562 1.609375 -5.34375 C 1.128906 -6.46875 0.890625 -7.679688 0.890625 -8.984375 Z M 3.5625 -8.984375 C 3.5625 -7.742188 3.859375 -6.625 4.453125 -5.625 C 5.054688 -4.625 5.859375 -3.820312 6.859375 -3.21875 C 7.859375 -2.625 8.976562 -2.328125 10.21875 -2.328125 C 11.445312 -2.328125 12.5625 -2.625 13.5625 -3.21875 C 14.570312 -3.820312 15.375 -4.625 15.96875 -5.625 C 16.570312 -6.625 16.875 -7.742188 16.875 -8.984375 C 16.875 -10.210938 16.570312 -11.332031 15.96875 -12.34375 C 15.375 -13.351562 14.570312 -14.15625 13.5625 -14.75 C 12.5625 -15.351562 11.445312 -15.65625 10.21875 -15.65625 C 8.976562 -15.65625 7.859375 -15.351562 6.859375 -14.75 C 5.859375 -14.15625 5.054688 -13.351562 4.453125 -12.34375 C 3.859375 -11.332031 3.5625 -10.210938 3.5625 -8.984375 Z M 3.5625 -8.984375 "/></g></g></g><g fill="#ffffff" fill-opacity="1"><g transform="translate(91.285958, 137.108069)"><g><path d="M 8.75 -9.109375 C 9.488281 -9.109375 10.09375 -9.257812 10.5625 -9.5625 C 11.039062 -9.875 11.398438 -10.269531 11.640625 -10.75 C 11.878906 -11.226562 12 -11.722656 12 -12.234375 C 12 -12.742188 11.878906 -13.253906 11.640625 -13.765625 C 11.398438 -14.285156 11.039062 -14.71875 10.5625 -15.0625 C 10.09375 -15.40625 9.488281 -15.578125 8.75 -15.578125 L 4.765625 -15.578125 L 4.765625 0 L 2.203125 0 L 2.203125 -18.1875 L 8.75 -18.1875 C 9.726562 -18.1875 10.582031 -18.007812 11.3125 -17.65625 C 12.050781 -17.3125 12.660156 -16.851562 13.140625 -16.28125 C 13.628906 -15.707031 13.992188 -15.066406 14.234375 -14.359375 C 14.472656 -13.660156 14.59375 -12.953125 14.59375 -12.234375 C 14.59375 -11.398438 14.421875 -10.59375 14.078125 -9.8125 C 13.742188 -9.03125 13.226562 -8.367188 12.53125 -7.828125 C 11.84375 -7.296875 10.984375 -6.9375 9.953125 -6.75 L 15.625 0 L 12.265625 0 L 5.71875 -7.875 L 5.71875 -9.109375 Z M 8.75 -9.109375 "/></g></g></g><g fill="#ffffff" fill-opacity="1"><g transform="translate(127.095231, 137.108069)"><g><path d="M 5.59375 -15.671875 L 0.15625 -15.671875 L 0.15625 -18.140625 L 13.59375 -18.140625 L 13.59375 -15.671875 L 8.1875 -15.671875 L 8.1875 0 L 5.59375 0 Z M 5.59375 -15.671875 "/></g></g></g><g fill="#ffffff" fill-opacity="1"><g transform="translate(161.39149, 137.108069)"><g><path d="M 15.984375 -11.640625 C 15.742188 -12.640625 15.300781 -13.425781 14.65625 -14 C 14.019531 -14.570312 13.296875 -14.976562 12.484375 -15.21875 C 11.671875 -15.46875 10.867188 -15.59375 10.078125 -15.59375 C 8.878906 -15.59375 7.800781 -15.304688 6.84375 -14.734375 C 5.882812 -14.160156 5.125 -13.375 4.5625 -12.375 C 4 -11.375 3.71875 -10.234375 3.71875 -8.953125 C 3.71875 -7.671875 4 -6.519531 4.5625 -5.5 C 5.125 -4.488281 5.882812 -3.691406 6.84375 -3.109375 C 7.800781 -2.523438 8.878906 -2.234375 10.078125 -2.234375 C 10.835938 -2.234375 11.585938 -2.375 12.328125 -2.65625 C 13.066406 -2.9375 13.742188 -3.363281 14.359375 -3.9375 C 14.984375 -4.507812 15.472656 -5.238281 15.828125 -6.125 L 9.0625 -6.125 L 9.0625 -8.78125 L 18.9375 -8.78125 C 18.863281 -8.007812 18.789062 -7.363281 18.71875 -6.84375 C 18.65625 -6.320312 18.554688 -5.90625 18.421875 -5.59375 L 18.421875 -5.625 C 18.015625 -4.457031 17.359375 -3.425781 16.453125 -2.53125 C 15.554688 -1.644531 14.546875 -0.945312 13.421875 -0.4375 C 12.304688 0.0625 11.191406 0.3125 10.078125 0.3125 C 8.796875 0.3125 7.609375 0.0859375 6.515625 -0.359375 C 5.421875 -0.816406 4.46875 -1.460938 3.65625 -2.296875 C 2.84375 -3.128906 2.207031 -4.109375 1.75 -5.234375 C 1.300781 -6.359375 1.078125 -7.597656 1.078125 -8.953125 C 1.078125 -10.304688 1.304688 -11.550781 1.765625 -12.6875 C 2.234375 -13.820312 2.875 -14.800781 3.6875 -15.625 C 4.507812 -16.457031 5.460938 -17.097656 6.546875 -17.546875 C 7.640625 -18.003906 8.816406 -18.234375 10.078125 -18.234375 C 10.953125 -18.234375 11.847656 -18.117188 12.765625 -17.890625 C 13.691406 -17.660156 14.566406 -17.289062 15.390625 -16.78125 C 16.210938 -16.269531 16.925781 -15.585938 17.53125 -14.734375 C 18.144531 -13.890625 18.570312 -12.859375 18.8125 -11.640625 Z M 15.984375 -11.640625 "/></g></g></g><g fill="#ffffff" fill-opacity="1"><g transform="translate(202.20137, 137.108069)"><g><path d="M 4.4375 -4.546875 L 2.6875 0 L -0.109375 0 L 7.109375 -18.1875 L 9 -18.1875 L 16.21875 0 L 13.4375 0 L 11.71875 -4.546875 Z M 10.78125 -6.984375 L 8.078125 -14.0625 L 5.390625 -6.984375 Z M 10.78125 -6.984375 "/></g></g></g><g fill="#ffffff" fill-opacity="1"><g transform="translate(238.985113, 137.108069)"><g><path d="M 15.984375 -11.640625 C 15.742188 -12.640625 15.300781 -13.425781 14.65625 -14 C 14.019531 -14.570312 13.296875 -14.976562 12.484375 -15.21875 C 11.671875 -15.46875 10.867188 -15.59375 10.078125 -15.59375 C 8.878906 -15.59375 7.800781 -15.304688 6.84375 -14.734375 C 5.882812 -14.160156 5.125 -13.375 4.5625 -12.375 C 4 -11.375 3.71875 -10.234375 3.71875 -8.953125 C 3.71875 -7.671875 4 -6.519531 4.5625 -5.5 C 5.125 -4.488281 5.882812 -3.691406 6.84375 -3.109375 C 7.800781 -2.523438 8.878906 -2.234375 10.078125 -2.234375 C 10.835938 -2.234375 11.585938 -2.375 12.328125 -2.65625 C 13.066406 -2.9375 13.742188 -3.363281 14.359375 -3.9375 C 14.984375 -4.507812 15.472656 -5.238281 15.828125 -6.125 L 9.0625 -6.125 L 9.0625 -8.78125 L 18.9375 -8.78125 C 18.863281 -8.007812 18.789062 -7.363281 18.71875 -6.84375 C 18.65625 -6.320312 18.554688 -5.90625 18.421875 -5.59375 L 18.421875 -5.625 C 18.015625 -4.457031 17.359375 -3.425781 16.453125 -2.53125 C 15.554688 -1.644531 14.546875 -0.945312 13.421875 -0.4375 C 12.304688 0.0625 11.191406 0.3125 10.078125 0.3125 C 8.796875 0.3125 7.609375 0.0859375 6.515625 -0.359375 C 5.421875 -0.816406 4.46875 -1.460938 3.65625 -2.296875 C 2.84375 -3.128906 2.207031 -4.109375 1.75 -5.234375 C 1.300781 -6.359375 1.078125 -7.597656 1.078125 -8.953125 C 1.078125 -10.304688 1.304688 -11.550781 1.765625 -12.6875 C 2.234375 -13.820312 2.875 -14.800781 3.6875 -15.625 C 4.507812 -16.457031 5.460938 -17.097656 6.546875 -17.546875 C 7.640625 -18.003906 8.816406 -18.234375 10.078125 -18.234375 C 10.953125 -18.234375 11.847656 -18.117188 12.765625 -17.890625 C 13.691406 -17.660156 14.566406 -17.289062 15.390625 -16.78125 C 16.210938 -16.269531 16.925781 -15.585938 17.53125 -14.734375 C 18.144531 -13.890625 18.570312 -12.859375 18.8125 -11.640625 Z M 15.984375 -11.640625 "/></g></g></g><g fill="#ffffff" fill-opacity="1"><g transform="translate(279.795005, 137.108069)"><g><path d="M 13.15625 -2.59375 L 13.15625 0 L 2.203125 0 L 2.203125 -18.140625 L 13.140625 -18.140625 L 13.140625 -15.546875 L 4.828125 -15.546875 L 4.828125 -10.5 L 12.953125 -10.5 L 12.953125 -7.875 L 4.828125 -7.875 L 4.828125 -2.59375 Z M 13.15625 -2.59375 "/></g></g></g></g></g></svg>