<?xml version="1.0" encoding="UTF-8" standalone="no"?>
<!-- Created with Inkscape (http://www.inkscape.org/) -->

<svg
   version="1.1"
   id="svg1"
   width="896"
   height="1152"
   viewBox="0 0 896 1152"
   sodipodi:docname="모기지아재로고_en.svg"
   inkscape:version="1.4.3 (0d15f75, 2025-12-25)"
   inkscape:export-filename="모기지아재로고-링없음.png"
   inkscape:export-xdpi="96"
   inkscape:export-ydpi="96"
   xmlns:inkscape="http://www.inkscape.org/namespaces/inkscape"
   xmlns:sodipodi="http://sodipodi.sourceforge.net/DTD/sodipodi-0.dtd"
   xmlns="http://www.w3.org/2000/svg"
   xmlns:svg="http://www.w3.org/2000/svg">
  <sodipodi:namedview
     id="namedview1"
     pagecolor="#ffffff"
     bordercolor="#000000"
     borderopacity="0.25"
     inkscape:showpageshadow="2"
     inkscape:pageopacity="0.0"
     inkscape:pagecheckerboard="0"
     inkscape:deskcolor="#d1d1d1"
     showgrid="false"
     inkscape:zoom="0.70052083"
     inkscape:cx="444.66915"
     inkscape:cy="508.90707"
     inkscape:window-width="1920"
     inkscape:window-height="1009"
     inkscape:window-x="1912"
     inkscape:window-y="-8"
     inkscape:window-maximized="1"
     inkscape:current-layer="g1" />
  <defs
     id="defs1">
    <linearGradient
       id="swatch2"
       inkscape:swatch="solid">
      <stop
         style="stop-color:#000000;stop-opacity:1;"
         offset="0"
         id="stop2" />
    </linearGradient>
  </defs>
  <g
     inkscape:groupmode="layer"
     inkscape:label="Image"
     id="g1">
    <circle
       style="fill:#314ba8;fill-opacity:1;stroke:#000000;stroke-width:24.9;stroke-dasharray:none"
       id="path4518"
       cx="460.37173"
       cy="551.7323"
       r="350"
       inkscape:export-filename="모기지아재로고원형-링없음.png"
       inkscape:export-xdpi="300"
       inkscape:export-ydpi="300" />
    <path
       style="fill:#5e5e5e;stroke-width:0.598737"
       d="m 451.56598,753.87933 c -11.08358,-1.3854 -21.0035,-5.05422 -32.54108,-12.0351 -8.79734,-5.3229 -11.84315,-7.66762 -18.85981,-14.5187 l -4.93958,-4.82301 v -13.54209 -13.5421 l -6.73579,-4.47002 c -3.70469,-2.4585 -8.4871,-5.29265 -10.62758,-6.2981 l -3.89179,-1.8281 -6.28674,-6.3047 c -3.45771,-3.46758 -8.32792,-8.55588 -10.82269,-11.30733 l -4.53594,-5.00264 -3.35054,-6.88547 c -1.8428,-3.78701 -3.78592,-8.7715 -4.31805,-11.07664 -0.53212,-2.30513 -1.66776,-5.94246 -2.52364,-8.08294 -2.04903,-5.12449 -3.10301,-12.24926 -3.8036,-25.71189 -0.31606,-6.07356 -0.82453,-11.2927 -1.12993,-11.5981 -0.34119,-0.3412 -1.65336,-0.18111 -3.40357,0.41525 -1.56657,0.53379 -3.89417,0.97052 -5.17244,0.97052 h -2.32413 l -3.10753,-2.86456 c -1.70914,-1.57551 -4.39373,-3.88896 -5.96576,-5.14101 -1.57203,-1.25205 -3.43368,-3.39825 -4.13702,-4.76933 l -1.2788,-2.49289 -0.40467,-6.93101 -0.40467,-6.931 -2.77835,-5.64248 -2.77835,-5.64246 -1.18794,-8.10203 c -0.65336,-4.45611 -1.57821,-9.03645 -2.05521,-10.17853 -1.84753,-4.42348 -2.9467,-11.61488 -2.97129,-19.43987 l -0.0245,-7.78358 1.05216,-3.84391 c 1.60013,-5.84587 4.13081,-10.32917 7.58197,-13.43206 1.70166,-1.52994 3.43261,-2.78172 3.84654,-2.78172 0.41394,0 1.47981,-0.57201 2.3686,-1.27113 l 1.61599,-1.27114 3.40434,0.64542 c 5.22307,0.99023 7.89486,1.26419 7.89486,0.80952 0,-0.22733 -0.50678,-2.18542 -1.12617,-4.35132 -0.61939,-2.16589 -1.31511,-6.20651 -1.54604,-8.97914 -0.23094,-2.77264 -0.8206,-6.79246 -1.31037,-8.93295 -0.48977,-2.14048 -1.44115,-6.5861 -2.11418,-9.87916 l -1.22368,-5.98737 -0.30184,-17.13276 -0.30184,-17.13276 0.92492,-3.82303 c 0.5087,-2.10267 1.08993,-6.1132 1.29162,-8.91229 0.58388,-8.10303 1.481,-13.01474 3.63868,-19.92175 1.10824,-3.54759 2.71982,-9.59281 3.58129,-13.43383 0.86147,-3.84102 1.96787,-7.7602 2.45866,-8.7093 0.4908,-0.94909 1.27447,-3.72272 1.74149,-6.1636 l 0.84912,-4.43797 2.79699,-4.35204 c 7.16223,-11.14425 10.4656,-15.87378 12.30159,-17.61254 4.85586,-4.5987 17.69488,-12.9816 27.17015,-17.74002 30.17495,-15.1537 94.28213,-30.5431 120.31279,-28.88198 19.68601,1.25625 32.58382,6.33927 43.9143,17.30661 8.89139,8.60641 14.60311,19.5742 17.71547,34.01765 l 0.34915,1.62031 2.24044,0.37932 c 14.28236,2.41811 28.47628,11.29535 37.29183,23.32323 3.05232,4.16457 8.97067,16.79455 10.5212,22.45264 l 1.06651,3.89179 -0.0455,8.38232 -0.0455,8.38231 -1.2573,2.69432 c -0.6956,1.49063 -1.25547,3.898 -1.25322,5.38863 0.005,3.26014 -3.8554,28.11355 -5.53339,35.62485 -2.37128,10.61463 -12.98696,41.78084 -14.87393,43.66781 -0.9851,0.9851 -0.67234,2.30205 0.46894,1.97461 0.57628,-0.16535 3.80263,-1.11124 7.16966,-2.102 l 6.12187,-1.80137 3.35796,1.23698 c 6.43885,2.3719 11.12489,8.10917 13.82707,16.92896 l 1.09105,3.56112 -0.023,8.38232 c -0.0276,10.05134 -0.35481,11.66849 -5.95024,29.40792 l -4.3657,13.84076 -1.27389,8.01314 c -1.76178,11.08225 -2.18164,13.001 -3.53499,16.15511 l -1.18139,2.75335 -6.05008,4.8665 c -6.94228,5.58417 -9.09657,6.84044 -11.28081,6.57842 l -1.55868,-0.18698 -0.50361,1.79621 c -0.96608,3.44564 -3.47914,18.54914 -3.4843,20.94067 -0.003,1.32554 -0.8124,6.39229 -1.79897,11.25945 l -1.79377,8.84937 -3.05994,6.11905 c -1.68296,3.36548 -3.36567,6.71767 -3.73934,7.44932 -0.37368,0.73164 -3.20293,4.83767 -6.28722,9.1245 l -5.60781,7.79422 -3.07388,2.24258 c -1.69063,1.23341 -4.55575,3.28297 -6.36693,4.55458 -1.81118,1.2716 -4.50549,3.47212 -5.98737,4.89002 -1.48187,1.41791 -4.53181,3.69069 -6.77765,5.05062 -2.24584,1.35994 -5.47902,3.57307 -7.18485,4.91808 l -3.1015,2.44547 -0.47506,3.07368 c -0.26128,1.69052 -0.66543,7.03795 -0.8981,11.88318 l -0.42305,8.80951 -2.99369,3.06582 c -6.74341,6.90593 -18.52134,15.62971 -26.6232,19.71951 -13.78978,6.96107 -28.55373,9.95228 -41.27423,8.36227 z m 22.09406,-11.63142 c 6.89786,-1.87455 18.44502,-7.21403 24.53592,-11.34556 2.46303,-1.6707 6.70657,-5.1933 9.43011,-7.828 l 4.95188,-4.79036 v -6.73532 c 0,-4.46057 -0.22035,-6.73533 -0.65243,-6.73533 -0.79564,0 -18.32252,9.06786 -22.17424,11.47226 l -2.76899,1.72851 -1.26077,3.45781 c -2.59838,7.12628 -6.78069,11.67027 -13.54762,14.71918 -3.81775,1.72013 -8.69238,2.69829 -8.69238,1.74424 0,-0.31351 1.63687,-1.35238 3.6375,-2.30859 2.00115,-0.95647 4.71391,-2.90634 6.03029,-4.33443 2.18245,-2.36768 5.2805,-7.89859 5.29478,-9.45271 0.007,-0.75457 -15.37201,-2.06318 -24.243,-2.06287 -7.16387,2.5e-4 -15.70707,-1.28678 -21.85389,-3.29229 -2.46979,-0.80582 -6.37655,-1.87717 -8.68169,-2.38079 -5.0374,-1.10057 -8.75468,-2.93878 -13.53063,-6.69098 -2.08479,-1.63792 -3.77632,-2.57445 -4.06823,-2.25243 -0.27481,0.30316 -0.33425,3.74818 -0.13208,7.65561 l 0.36757,7.10441 2.39495,2.10875 c 5.14244,4.52792 15.00648,11.4886 19.95383,14.08068 6.15424,3.22441 16.21771,6.73896 21.65838,7.56393 2.14049,0.32457 6.99026,0.48435 10.77727,0.35508 l 6.88547,-0.23504 z m 51.44137,-51.47902 c 0.95727,-0.49502 2.25985,-1.56031 2.89463,-2.3673 0.63478,-0.807 3.0161,-2.48031 5.29182,-3.71848 3.71321,-2.02029 8.82514,-5.75033 16.92705,-12.35125 1.51571,-1.23489 3.08461,-2.24526 3.48646,-2.24526 0.64372,0 4.38058,-4.79664 4.38058,-5.62291 0,-0.17484 1.48791,-2.79773 3.30645,-5.82864 1.81855,-3.03091 3.47838,-6.19577 3.68852,-7.03303 0.21014,-0.83725 1.40924,-3.74558 2.66466,-6.46294 l 2.2826,-4.94067 1.21373,-8.16682 c 0.66755,-4.49176 1.21529,-9.9587 1.21719,-12.14876 0.002,-2.19006 0.27139,-5.59851 0.59884,-7.57434 0.32745,-1.97583 0.72315,-10.73236 0.87934,-19.45895 0.15618,-8.72659 0.44124,-17.21369 0.63346,-18.86022 0.75615,-6.47714 0.74107,-10.47589 -0.0665,-17.61629 l -0.84116,-7.43777 0.5675,-3.63886 c 0.9855,-6.31918 1.89465,-25.31575 1.98156,-41.40464 l 0.0838,-15.52182 -1.2835,-6.28673 c -0.70593,-3.45771 -1.72775,-7.49918 -2.27071,-8.98106 -0.59139,-1.61401 -1.18714,-5.96243 -1.48585,-10.84515 -0.58432,-9.55149 -0.88831,-12.02492 -2.43148,-19.78416 -0.63243,-3.17996 -1.12695,-7.92405 -1.09892,-10.54242 l 0.0509,-4.76068 -1.8516,-5.78032 c -1.01838,-3.17918 -1.8516,-6.13834 -1.8516,-6.5759 0,-0.43756 -1.79259,-4.27374 -3.98352,-8.52484 l -3.98353,-7.72928 -5.74595,-5.87379 c -3.16027,-3.23058 -7.09311,-6.84999 -8.73963,-8.04312 -1.64653,-1.19314 -4.74499,-3.56747 -6.88548,-5.27631 l -3.89179,-3.10696 -10.17853,-4.1977 c -5.59819,-2.30875 -10.8521,-4.39004 -11.67537,-4.6251 -1.2776,-0.3648 -4.93312,-2.32081 -11.376,-6.08713 -0.82326,-0.48125 -2.43985,-1.30902 -3.59242,-1.83949 l -2.09558,-0.96448 -15.86653,-0.24128 -15.86653,-0.24127 -6.49304,1.20315 c -3.76214,0.69713 -8.04312,1.94088 -10.17853,2.95716 -2.02701,0.96471 -5.5715,2.35958 -7.87664,3.09972 -2.30514,0.74015 -8.50206,3.03495 -13.77095,5.09957 -5.26888,2.06461 -11.79156,4.59146 -14.49484,5.61521 -2.70327,1.02376 -5.80174,2.24244 -6.88547,2.70818 -1.08374,0.46574 -3.72174,1.56497 -5.86222,2.44274 -2.14048,0.87777 -4.70008,2.2107 -5.688,2.96206 -0.98792,0.75136 -3.27809,2.11144 -5.08926,3.02239 -1.81118,0.91096 -5.11346,2.73223 -7.33839,4.04727 l -4.04532,2.39097 -5.38478,6.27988 c -2.96163,3.45394 -5.38478,6.50716 -5.38478,6.78494 0,0.27778 -0.76896,1.66364 -1.70881,3.0797 -0.93985,1.41605 -3.27139,5.53839 -5.1812,9.16075 -1.90981,3.62236 -3.85116,7.02914 -4.3141,7.57063 -2.16273,2.52968 -8.00014,22.93636 -7.01637,24.52814 0.15414,0.2494 -0.10585,1.48159 -0.57777,2.73819 -1.40748,3.74785 -1.57642,5.13041 -2.13088,17.43913 l -0.53103,11.78876 0.78335,2.99369 0.78336,2.99368 -0.30547,14.66905 c -0.16801,8.06798 -0.0356,17.36338 0.29422,20.65643 0.60314,6.0219 0.41066,8.82604 -1.07827,15.70866 l -0.80777,3.73392 1.01703,6.74397 c 0.55936,3.70919 1.45625,10.5804 1.99309,15.26937 l 0.97606,8.52539 -0.45068,6.44303 c -0.50393,7.20427 -0.5265,10.6728 -0.17049,26.20136 l 0.24708,10.77726 1.04726,2.39495 c 0.576,1.31722 1.56541,5.08926 2.19869,8.38231 2.7864,14.48915 10.77654,31.52581 17.91049,38.18891 7.177,6.7033 8.79885,7.85048 12.8022,9.05531 1.55917,0.46924 3.73917,1.54293 4.84446,2.38597 1.10529,0.84304 3.4373,2.09555 5.18225,2.78335 1.74495,0.68779 4.34459,2.04147 5.77698,3.00818 2.38075,1.60675 4.34053,2.25176 4.34053,1.42856 0,-0.181 -0.36851,-1.05666 -0.81891,-1.9459 -0.4504,-0.88923 -1.28933,-3.77224 -1.86429,-6.40668 -0.57496,-2.63445 -1.68464,-6.49616 -2.46597,-8.58159 -2.68769,-7.17367 -3.68904,-16.20764 -4.12579,-37.22179 -0.16767,-8.06798 -0.46883,-17.22865 -0.66922,-20.35705 -0.44247,-6.90761 0.30038,-10.12179 3.14454,-13.60588 l 2.06471,-2.52925 4.91209,-2.4115 c 4.94588,-2.42808 6.55346,-2.83486 22.42097,-5.67348 l 8.5278,-1.52558 h 6.81124 c 7.51642,0 16.30178,1.29027 19.54158,2.86999 l 2.09558,1.0218 0.18134,2.48808 c 0.22778,3.125 -1.191,6.61326 -2.99423,7.36177 -0.75805,0.31466 -8.65486,1.26408 -17.54847,2.10982 -8.8936,0.84574 -16.97655,1.75791 -17.9621,2.02704 -1.61802,0.44185 28.52612,1.49048 40.11967,1.39566 17.8559,-0.14604 41.69339,-0.94054 40.59741,-1.3531 -1.10548,-0.41614 -11.98398,-1.61956 -30.11951,-3.33193 -2.14049,-0.20211 -4.36051,-0.61158 -4.93339,-0.90995 -1.73942,-0.90591 -2.92845,-3.92841 -2.73204,-6.94476 l 0.18121,-2.7829 1.88491,-1.09715 c 3.32139,-1.93329 10.0775,-2.98444 19.07089,-2.96714 10.48842,0.0202 14.21917,0.61687 27.00321,4.31891 15.32805,4.43872 17.56591,5.58095 19.49986,9.95297 l 1.14748,2.59408 -0.39159,4.34656 c -0.21538,2.39061 -0.0687,7.39252 0.326,11.11536 l 0.71759,6.76879 -0.69375,8.79837 c -0.82431,10.45413 -2.21631,21.36674 -2.90388,22.76498 -0.27094,0.551 -1.37629,4.10027 -2.45633,7.88729 -4.57093,16.02734 -7.2977,24.86292 -7.84053,25.40576 -0.31869,0.31868 -0.57943,1.18447 -0.57943,1.92397 v 1.34455 l 3.29591,-0.25293 c 1.81275,-0.13911 4.07913,-0.65794 5.0364,-1.15296 z m 9.91895,-87.04034 0.41069,-4.08941 -0.97723,-2.33884 c -1.32792,-3.17815 -2.98017,-4.8052 -6.56918,-6.46901 -7.88458,-3.65517 -17.90882,-12.43688 -25.23442,-22.10655 -7.09016,-9.35891 -5.53851,-9.20799 4.47954,0.43569 3.49046,3.36002 8.50174,7.68466 11.13619,9.61031 2.63444,1.92565 6.06728,4.67724 7.62853,6.11466 1.56126,1.4374 3.98614,3.11131 5.38864,3.7198 3.02829,1.31384 4.85045,3.15548 6.11383,6.17917 1.20765,2.89032 1.17078,4.00192 -0.29615,8.92757 -1.60871,5.40177 -2.62206,5.40986 -2.08044,0.0166 z m -153.79572,-0.70048 c -0.49349,-3.08615 0.10291,-6.89493 1.5234,-9.72881 1.15533,-2.30486 2.7292,-3.50344 9.48378,-7.22234 4.26966,-2.35077 15.73701,-12.05514 22.6954,-19.20625 3.95323,-4.06271 5.44524,-5.22571 5.44524,-4.24451 0,0.31352 -1.88523,3.38441 -4.71773,7.6848 -0.83646,1.26995 -4.99171,5.31143 -9.23388,8.98105 -7.67724,6.64108 -9.17185,7.77187 -16.58398,12.5471 l -3.89179,2.50727 -1.34196,2.66097 c -0.73808,1.46353 -1.51374,3.95577 -1.72366,5.53831 -0.46474,3.50337 -1.14026,3.7003 -1.65482,0.48241 z m 73.35378,-18.61478 c -1.10969,-0.33892 -4.34287,-1.87423 -7.18484,-3.41181 l -5.16722,-2.79559 -6.41666,-0.33009 -6.41665,-0.3301 -1.6663,-1.2345 c -5.80323,-4.29943 -6.42741,-12.64779 -1.37009,-18.32478 2.54238,-2.8539 3.60624,-2.67981 2.48988,0.40742 -0.40516,1.12044 -0.89325,3.3594 -1.08464,4.97547 l -0.348,2.93829 1.22562,2.77073 1.22563,2.77074 1.39071,0.32727 c 0.76489,0.17999 3.54616,0.12269 6.1806,-0.12735 l 4.7899,-0.45461 -0.29712,-1.79621 c -0.69825,-4.22126 0.10372,-12.27411 1.22235,-12.27411 0.31438,0 0.57311,0.74094 0.57495,1.64653 0.007,3.31599 1.33606,6.34007 4.07337,9.26649 3.59123,3.83931 6.53768,5.29682 11.7561,5.81532 l 4.22488,0.41979 -1.66835,0.47737 c -1.68219,0.48134 -7.06183,0.16151 -10.21625,-0.60738 l -1.70606,-0.41585 0.21118,1.09655 c 0.36589,1.89992 3.86966,3.42379 8.50685,3.69982 l 4.27389,0.25442 2.99368,-1.63135 c 1.64653,-0.89723 4.71008,-2.53599 6.80788,-3.64168 l 3.81419,-2.01035 2.47254,0.0143 c 1.35991,0.008 3.51899,0.25705 4.79796,0.55376 l 2.32541,0.53948 1.13381,-0.70345 c 1.6807,-1.04277 3.4958,-5.22518 3.4958,-8.05517 0,-1.36572 -0.53493,-3.84026 -1.18874,-5.49897 l -1.18874,-3.01585 h 0.84272 c 0.46349,0 1.80779,1.12747 2.98733,2.5055 3.27338,3.82421 4.10287,8.07342 2.46987,12.65224 -1.06408,2.98357 -2.48421,4.52167 -5.41929,5.86946 l -2.39494,1.09977 -4.90395,0.0132 -4.90395,0.0132 -6.44854,3.38203 -6.44853,3.38202 -3.91531,0.19217 c -2.15342,0.10569 -4.82324,-0.0851 -5.93293,-0.42405 z M 476.173,528.32758 c -1.9505,-4.53408 -2.67139,-8.22658 -2.40939,-12.34126 l 0.24361,-3.82573 2.25407,-4.5608 c 1.23973,-2.50844 2.5376,-4.56079 2.88415,-4.56079 0.34655,0 0.49862,0.34261 0.33793,0.76137 -0.1607,0.41876 -0.76561,2.88938 -1.34426,5.49029 l -1.05208,4.72892 0.35429,7.23286 c 0.19486,3.97808 0.53294,7.8391 0.75128,8.58004 0.73911,2.50804 -0.78033,1.37584 -2.0196,-1.5049 z m -30.25377,-11.51763 c 0.44241,-9.76088 -0.0748,-12.58054 -3.71915,-20.27372 -1.47436,-3.11241 -2.58501,-5.75457 -2.46812,-5.87147 0.63317,-0.63317 6.70904,6.94233 8.30723,10.35761 l 1.86292,3.98096 -0.0324,3.43667 c -0.0296,3.14609 -2.53052,13.41415 -3.78825,15.55368 -0.31174,0.5303 -0.37831,-2.41688 -0.16225,-7.18373 z m -84.82173,6.17939 c 0,-1.89809 4.34781,-5.47202 7.53001,-6.18972 2.84251,-0.64109 2.56062,0.18117 -0.79422,2.31672 -1.5642,0.9957 -3.71965,2.39243 -4.78989,3.10384 -1.07025,0.7114 -1.9459,1.05753 -1.9459,0.76916 z m 192.19456,-2.32411 c -6.06942,-4.12338 -6.30774,-4.31101 -5.94772,-4.68247 0.54738,-0.56479 4.17823,0.68451 6.49749,2.23566 1.99978,1.33747 4.90035,5.23092 3.82492,5.13421 -0.2656,-0.0239 -2.23421,-1.23322 -4.37469,-2.6874 z m -160.18695,1.33841 c -3.57411,-0.91744 -8.2675,-3.10499 -9.28046,-4.32554 -0.93262,-1.12373 -0.41229,-1.10729 4.62791,0.14619 l 4.07863,1.01435 8.98105,-0.0128 c 4.93958,-0.007 11.11096,-0.33186 13.71416,-0.72187 2.60321,-0.39002 4.85106,-0.59117 4.99522,-0.44701 0.51425,0.51424 -3.58608,2.23274 -8.11669,3.4018 -5.8972,1.52169 -14.99087,1.9739 -18.99982,0.94483 z m 117.93509,0.18517 c -4.86324,-0.87792 -11.81843,-3.23643 -12.10826,-4.10592 l -0.26662,-0.79987 1.11863,0.32837 c 0.61524,0.18061 4.34241,0.64973 8.2826,1.0425 7.90216,0.78771 16.59074,0.42315 22.17413,-0.9304 1.97584,-0.47899 3.99657,-0.87197 4.49053,-0.8733 1.69226,-0.005 -2.24493,2.81104 -5.80826,4.15362 l -3.47216,1.30822 -5.688,0.2123 c -3.1284,0.11676 -7.05357,-0.0342 -8.72259,-0.33552 z m -150.99049,-9.95509 c -0.41163,-0.1724 -0.74842,-0.57055 -0.74842,-0.88477 0,-0.33382 2.30223,-0.49975 5.53832,-0.39916 3.17829,0.0988 5.53831,0.4273 5.53831,0.77089 0,0.62377 -8.99678,1.07068 -10.32821,0.51304 z m 189.19714,-0.0127 c -0.41368,-0.16678 -0.59985,-0.54966 -0.41371,-0.85084 0.38282,-0.61941 8.02123,-0.75132 9.54941,-0.16491 l 0.99728,0.3827 -0.79862,0.50624 c -0.84967,0.53861 -8.06965,0.63669 -9.33436,0.12681 z M 366.7855,508.18884 c -3.38541,-1.07067 -5.58409,-2.36653 -8.68168,-5.11682 -2.89419,-2.5697 -2.37835,-3.11043 1.44376,-1.51345 1.40353,0.58642 4.81281,1.00282 9.50323,1.16068 l 7.31448,0.24617 2.99369,-0.937 c 1.64652,-0.51536 5.14914,-1.98209 7.78358,-3.25942 3.0246,-1.46649 6.22419,-2.51363 8.68168,-2.84126 11.08156,-1.47738 25.45386,3.88206 29.1052,10.85336 0.47432,0.90559 0.72152,1.64653 0.54934,1.64653 -0.17218,0 -1.9718,-1.22109 -3.99916,-2.71355 -2.02735,-1.49245 -3.90963,-2.63754 -4.18284,-2.54463 -0.27321,0.0929 -1.10746,1.38136 -1.8539,2.86323 l -1.35716,2.69432 -1.94589,-0.0333 c -1.07025,-0.0183 -5.94413,-0.0856 -10.83084,-0.14969 l -8.88496,-0.11639 -0.69484,-1.52501 c -0.38216,-0.83876 -0.69484,-2.05966 -0.69484,-2.71311 0,-2.42885 -1.06613,-2.10252 -11.65228,3.56666 l -2.37186,1.2702 -3.91488,-0.0401 c -2.15319,-0.022 -4.99261,-0.38089 -6.30983,-0.79747 z m 38.23281,-6.63755 c 0.3873,-1.00928 -1.27097,-2.10471 -3.18612,-2.10471 -1.51657,0 -2.32299,1.70703 -1.15561,2.4462 1.32641,0.83989 3.96813,0.63211 4.34173,-0.34149 z m 87.80132,7.04027 c 0,-0.30091 0.93625,-1.64092 2.08055,-2.97779 4.61474,-5.39127 12.84761,-8.96228 22.0021,-9.54341 l 5.55482,-0.35262 3.83996,1.00806 c 2.11197,0.55443 5.67521,1.93228 7.91831,3.06189 2.2431,1.12961 4.96075,2.05675 6.03921,2.06031 1.07847,0.004 3.308,0.42021 4.95453,0.92588 4.39362,1.34933 10.94032,-0.1146 15.71585,-3.51428 1.399,-0.99594 2.68084,-1.6736 2.84853,-1.50591 0.60937,0.60937 -2.49832,4.41256 -5.40628,6.61619 -4.64349,3.51881 -6.36001,4.12535 -11.82871,4.17976 l -4.92181,0.049 -5.688,-3.06768 c -3.1284,-1.68723 -6.27055,-3.07285 -6.98253,-3.07918 l -1.29453,-0.0115 -0.3988,2.36048 c -0.21935,1.29826 -0.72375,2.63016 -1.12091,2.95977 -0.78972,0.65541 -20.81763,1.05913 -21.81966,0.43983 -0.33615,-0.20775 -0.79301,-1.45403 -1.01527,-2.76953 -0.22225,-1.3155 -0.52851,-2.39181 -0.68057,-2.39181 -0.6382,0 -4.15454,2.04615 -6.87454,4.00027 -1.60724,1.15469 -2.92225,1.85322 -2.92225,1.55229 z m 27.84126,-7.64814 v -1.19748 l -2.24526,-0.18583 -2.24526,-0.18582 v 1.13383 c 0,1.6098 0.59686,2.01419 2.67279,1.81083 l 1.81773,-0.17806 z m 28.14064,-19.17459 c -7.45185,-3.62973 -13.58377,-5.4072 -21.8539,-6.33487 l -5.688,-0.63802 -6.71887,0.69108 c -6.57217,0.67599 -10.21926,1.62543 -20.52366,5.34288 -2.79909,1.00981 -5.80229,1.83962 -6.67377,1.84403 l -1.5845,0.008 -1.85823,-2.11641 c -3.47158,-3.9539 -2.33564,-6.79056 4.58146,-11.44074 6.3033,-4.23753 14.37448,-7.60057 21.38895,-8.91217 l 5.37601,-1.00525 8.69431,0.27479 8.6943,0.27479 3.83465,1.57511 c 4.60146,1.89009 6.01128,2.78059 9.51441,6.00966 3.87975,3.57623 9.10668,11.6854 10.56323,16.38801 l 0.41726,1.34716 -0.78877,-0.05 c -0.43383,-0.0275 -3.75252,-1.49367 -7.37488,-3.25808 z m -186.50655,1.92923 c 0,-1.65795 4.74891,-10.45881 7.38104,-13.67882 3.4462,-4.2159 8.88688,-7.89946 14.08372,-9.53525 l 3.98156,-1.25327 7.78358,0.005 7.78358,0.005 6.0286,1.23167 c 10.309,2.10616 16.235,5.06055 23.15982,11.54624 l 3.44274,3.22442 v 1.68345 c 0,1.86158 -3.39094,5.75487 -5.01232,5.75487 -0.5175,0 -2.49782,-0.69155 -4.40072,-1.53678 -8.21882,-3.65064 -19.18301,-6.18549 -26.91691,-6.22303 -11.28082,-0.0548 -22.20325,2.54951 -32.50666,7.75066 -3.95861,1.99829 -4.80803,2.17943 -4.80803,1.02527 z m 73.60539,199.58078 2.30799,-1.17745 1.22046,-2.56465 c 1.14156,-2.39888 2.8529,-10.49301 3.5171,-16.63498 l 0.29138,-2.69432 -1.29445,-3.29305 c -0.71194,-1.81118 -2.90437,-5.68389 -4.87207,-8.60604 -1.96769,-2.92214 -3.44853,-5.44208 -3.29074,-5.59986 0.15778,-0.15778 2.05848,0.30268 4.22378,1.02324 12.1441,4.0413 30.91801,4.02704 42.96897,-0.0326 1.98236,-0.66781 3.7389,-1.07958 3.90343,-0.91505 0.16453,0.16452 -0.8032,1.94992 -2.15051,3.96753 -3.38648,5.07129 -6.10667,10.76935 -6.48394,13.5821 l -0.31689,2.36263 2.50488,7.73662 c 2.73609,8.45074 3.47537,9.92112 5.73141,11.39933 1.97246,1.29241 7.30842,1.24052 10.13019,-0.0985 1.18856,-0.564 3.41695,-2.49555 4.95199,-4.29234 1.53504,-1.79679 3.98086,-4.08554 5.43516,-5.08612 3.43716,-2.36483 4.71144,-5.31711 5.24333,-12.14785 0.23078,-2.96374 1.08268,-7.6788 1.8931,-10.47789 4.08435,-14.10677 6.45183,-25.54503 7.13981,-34.49542 l 0.37354,-4.85959 -2.19809,-2.32608 -2.1981,-2.32608 -2.52424,2.99189 c -12.43181,14.73497 -22.30286,21.72747 -35.72399,25.30632 l -5.71814,1.52479 -11.07663,0.0569 -11.07664,0.0569 -4.78989,-1.11054 c -14.50532,-3.36305 -24.56819,-10.15004 -35.86,-24.1861 -1.92069,-2.38746 -3.842,-4.34084 -4.2696,-4.34084 -1.13283,0 -3.71487,3.28488 -4.15416,5.28493 -0.53758,2.44757 0.58884,10.83778 2.94788,21.9576 1.11778,5.26889 2.32783,13.12326 2.68899,17.45417 0.82987,9.95133 1.76013,13.03994 5.36008,17.79613 1.59028,2.10105 3.48854,4.88252 4.21834,6.18103 1.57049,2.7943 5.49673,5.50312 11.52637,7.95234 5.18606,2.10657 6.37168,2.18597 9.4199,0.63089 z m 35.17172,-53.95073 c 6.1461,-0.84396 14.94394,-3.78339 19.39421,-6.47978 4.87752,-2.95525 7.94668,-5.4896 7.34531,-6.06538 -0.2758,-0.26407 -2.76199,-0.0848 -5.52487,0.39839 -2.76288,0.48318 -5.86134,0.79047 -6.88548,0.68288 l -1.86206,-0.19564 4.7899,-1.57852 c 2.63444,-0.86818 6.23508,-2.14971 8.00142,-2.84785 3.55846,-1.40647 8.46385,-4.56687 8.46385,-5.45301 0,-1.19982 -18.02876,-0.42247 -36.98874,1.59484 l -9.14748,0.97328 -8.81463,-0.96966 c -17.94788,-1.97437 -36.05717,-2.81306 -36.05717,-1.6699 0,0.27418 1.05632,1.34741 2.34738,2.38493 2.46631,1.98198 5.59723,3.37072 13.51915,5.99651 l 4.7899,1.58765 -2.39495,0.17951 c -1.31722,0.0987 -4.28097,-0.21879 -6.58611,-0.7056 -2.30514,-0.48681 -4.41983,-0.65992 -4.69932,-0.3847 -0.80961,0.79727 5.45274,5.39173 10.76034,7.89447 4.3476,2.05006 11.70964,4.20142 16.69099,4.87749 3.89107,0.52811 18.42954,0.38823 22.85836,-0.21991 z m 123.02805,-39.45357 c 1.57713,-1.63625 3.0481,-3.69449 3.26881,-4.57388 0.22071,-0.87939 0.0514,-4.24245 -0.37623,-7.47347 l -0.77754,-5.8746 1.04376,-4.83079 c 1.13017,-5.23075 2.98757,-11.92365 6.81756,-24.56616 1.34678,-4.44563 2.90064,-10.36077 3.45302,-13.14477 l 1.00432,-5.06182 -0.314,-6.31418 -0.31401,-6.31419 -1.28744,-3.3962 c -0.82397,-2.17361 -2.14099,-4.16733 -3.6585,-5.53832 l -2.37106,-2.14211 h -1.87351 c -2.41938,0 -5.27073,1.78814 -8.25193,5.17497 -2.55107,2.89817 -3.95652,6.39929 -4.59693,11.45137 l -0.3999,3.15475 0.82707,-0.32013 c 0.45488,-0.17607 1.46806,-1.25899 2.2515,-2.40648 1.97202,-2.88838 5.72208,-6.16965 7.58567,-6.63738 3.51339,-0.8818 6.50663,2.44134 7.20039,7.99398 0.22142,1.77225 0.14565,3.79808 -0.16838,4.50185 l -0.57096,1.27959 -0.73182,-2.90628 c -1.03637,-4.11582 -2.30313,-6.31782 -3.63449,-6.31782 -1.38417,0 -4.2299,3.3481 -6.45028,7.58895 l -1.643,3.1381 0.80314,1.971 c 2.28409,5.60541 2.66852,7.16575 2.91959,11.85017 l 0.27278,5.08926 -1.00301,3.84904 c -1.35928,5.21623 -5.83501,13.88297 -6.71505,13.00293 -0.15455,-0.15454 0.46529,-2.25815 1.37739,-4.67469 l 1.65837,-4.3937 0.0263,-6.28674 0.0263,-6.28673 -1.08708,-3.14337 c -0.64114,-1.85388 -1.44451,-3.14337 -1.95836,-3.14337 -0.47919,0 -1.45806,1.2798 -2.17525,2.844 l -1.30399,2.844 0.0298,14.36969 c 0.0164,7.90332 0.17817,19.07247 0.35952,24.82032 l 0.32974,10.45063 1.87329,1.67379 c 1.2156,1.08613 2.53926,1.67379 3.77013,1.67379 h 1.89684 z m -257.34963,-0.49625 1.13061,-1.01928 -0.36256,-4.49053 c -0.19941,-2.46979 -0.61606,-9.20558 -0.92588,-14.96842 -0.30983,-5.76284 -0.71009,-10.88204 -0.88946,-11.376 -0.17938,-0.49396 -0.59161,-4.7442 -0.91607,-9.44497 l -0.58992,-8.54686 -1.15107,-2.60219 c -2.13358,-4.8233 -2.94779,-4.13163 -4.24662,3.60746 l -0.71639,4.2686 0.63514,4.56654 c 0.34934,2.5116 1.63923,7.51491 2.86643,11.11847 2.1219,6.23069 2.30685,8.47567 0.54185,6.5771 -1.06785,-1.14866 -4.68286,-9.83114 -6.66326,-16.00368 l -1.59222,-4.96268 0.20205,-6.41332 0.20204,-6.41332 1.76332,-3.48006 1.76331,-3.48006 -1.46394,-2.72106 c -1.97428,-3.66963 -5.81458,-7.98156 -7.10856,-7.98156 -1.20497,0 -2.69926,2.65168 -3.71142,6.58611 l -0.69314,2.69432 -0.43746,-1.55494 c -0.56556,-2.01029 0.40936,-8.22684 1.56795,-9.99802 1.21521,-1.85772 3.38744,-2.7581 5.42208,-2.24745 0.96497,0.2422 3.53832,2.353 6.04156,4.95563 2.39834,2.49355 4.47028,4.42406 4.60433,4.29001 0.53257,-0.53257 -1.32709,-8.17253 -2.57781,-10.59032 -1.64948,-3.18864 -5.1359,-7.10424 -7.34075,-8.24442 -0.91399,-0.47263 -2.64513,-0.85934 -3.84698,-0.85934 h -2.18519 l -1.94002,1.9459 c -1.06702,1.07024 -2.57681,3.56248 -3.3551,5.53831 l -1.41506,3.59242 -0.0128,8.38232 -0.0128,8.38232 1.394,5.08926 c 0.7667,2.7991 1.61769,8.00366 1.89108,11.56569 l 0.49706,6.47643 1.9135,3.67666 c 2.80368,5.3871 3.0356,6.46355 3.46724,16.09367 l 0.39325,8.7737 1.94276,2.41751 c 1.06852,1.32962 1.94276,2.84008 1.94276,3.35657 0,1.33549 1.97577,2.85843 5.25555,4.05106 3.26997,1.18905 7.01316,0.92814 8.71662,-0.60758 z M 588.61945,426.55036 c 10e-4,-1.2349 0.42695,-4.67015 0.94644,-7.6339 1.09141,-6.22665 0.8064,-9.82715 -1.25846,-15.89809 -2.31385,-6.80299 -5.04631,-11.34664 -9.55085,-15.88151 l -4.20936,-4.23771 -4.29907,-2.13757 c -4.28699,-2.13157 -12.07411,-3.95497 -13.39746,-3.13709 -0.38632,0.23876 1.60827,1.5093 4.61636,2.94061 9.17694,4.36654 15.7097,10.95592 21.10445,21.28736 1.28965,2.46979 2.79807,6.05873 3.35206,7.97542 l 1.00725,3.4849 -0.40644,6.09489 c -0.40179,6.02516 0.12821,9.38795 1.47961,9.38795 0.33745,0 0.61442,-1.01037 0.61547,-2.24526 z m 10.17421,-24.54822 c -0.007,-7.88616 -2.80344,-18.38966 -6.71914,-25.23436 -2.58349,-4.51598 -8.92627,-10.70624 -13.39187,-13.06983 -4.98299,-2.63745 -14.01459,-4.72524 -14.01459,-3.23969 0,0.28457 1.23749,0.99 2.74997,1.56762 4.09123,1.56246 11.15553,6.50608 14.36826,10.05497 6.59825,7.28862 11.91358,17.36003 14.68542,27.82571 0.71954,2.71677 1.53688,4.93958 1.8163,4.93958 0.27943,0 0.50697,-1.2798 0.50565,-2.844 z m -248.56104,-6.07253 c 2.24861,-0.62312 4.60273,-1.40597 5.23137,-1.73966 0.62864,-0.3337 8.28292,-4.01616 17.00951,-8.18325 17.19075,-8.20886 19.71008,-9.44239 24.24885,-11.87296 1.64653,-0.88173 5.55328,-2.71159 8.68168,-4.06636 3.12841,-1.35477 6.76573,-2.93246 8.08295,-3.50599 1.31722,-0.57354 3.33796,-1.41017 4.49053,-1.85919 1.15257,-0.44902 6.03471,-2.91035 10.8492,-5.46963 l 8.75363,-4.65323 5.65681,-0.91028 c 5.68166,-0.91426 10.62397,-2.42672 17.84942,-5.46232 l 3.89179,-1.63504 10.12505,-0.48571 10.12506,-0.48572 2.44842,1.18157 c 1.34663,0.64987 4.32052,2.24279 6.60862,3.53984 2.28812,1.29704 4.36012,2.23471 4.60446,2.0837 0.24433,-0.15101 0.21169,-1.00954 -0.0725,-1.90785 -0.28423,-0.89831 -0.68272,-2.63416 -0.88551,-3.85746 l -0.36874,-2.22417 -2.65172,-2.17289 c -1.45846,-1.19509 -3.38511,-3.33211 -4.28145,-4.74892 -0.89635,-1.41682 -2.43328,-3.05071 -3.4154,-3.63086 l -1.78567,-1.05482 -4.84151,0.0707 c -2.66284,0.0389 -7.66836,0.61952 -11.12339,1.29031 -3.45503,0.67079 -7.14479,1.22044 -8.19945,1.22143 -1.71201,0.002 -12.55067,4.03086 -17.24201,6.40966 -0.98792,0.50094 -3.33734,1.39239 -5.22095,1.98103 -3.3376,1.04301 -4.94406,1.95246 -18.19242,10.29916 -3.50853,2.21044 -8.26521,4.75895 -10.5704,5.66336 l -4.19123,1.64438 -3.82857,3.46959 -3.82855,3.46959 -7.02079,3.47328 c -13.69706,6.77611 -31.60327,16.08127 -33.98367,17.65998 -1.32807,0.8808 -4.122,2.27054 -6.20875,3.08833 -3.41148,1.33695 -5.37453,2.80686 -5.42786,4.06431 -0.0259,0.61205 0.043,0.60198 4.68324,-0.6839 z m 8.17057,-19.7654 c 6.67045,-2.09986 11.66335,-4.13377 16.02033,-6.52604 5.35915,-2.94253 19.11181,-11.60896 21.97643,-13.84874 3.00453,-2.34918 20.75045,-14.10576 27.87108,-18.46445 6.61473,-4.04901 20.25021,-10.7287 28.97582,-14.19453 20.40862,-8.10636 42.52711,-9.04583 58.7449,-2.49518 11.3662,4.59101 21.35773,14.35599 25.97946,25.39038 2.3917,5.71018 3.44813,11.05219 3.87672,19.60322 l 0.39012,7.78358 1.00107,-3.29305 c 2.58032,-8.48805 2.86605,-18.7485 0.76697,-27.5419 -1.28535,-5.38453 -6.18695,-15.1136 -9.907,-19.66417 -6.7599,-8.26907 -18.18243,-15.3925 -29.60409,-18.46198 l -5.98737,-1.60906 -10.77727,-0.0105 -10.77726,-0.0105 -6.28674,1.35662 c -16.39987,3.53895 -33.28491,10.81857 -48.53109,20.92314 -10.0993,6.69342 -13.72258,9.55901 -33.40241,26.41736 -14.82177,12.69677 -19.31894,16.03121 -28.83283,21.37808 -2.14049,1.20297 -4.70009,2.68228 -5.688,3.28738 l -1.79621,1.10017 1.19747,0.005 c 0.65861,0.003 2.81406,-0.50339 4.7899,-1.12538 z m 23.24359,-37.51893 c 13.31683,-2.80129 26.14869,-9.63492 40.88323,-21.77244 2.57108,-2.11793 4.34867,-3.95944 3.95021,-4.09227 -0.39848,-0.13282 -3.69756,1.41536 -7.33131,3.4404 -13.37029,7.45108 -34.93418,17.66966 -42.9333,20.34499 -4.3633,1.45932 -7.93326,2.90721 -7.93326,3.21753 0,0.70425 7.73893,0.0452 13.36443,-1.13821 z"
       id="path4512" />
    <path
       style="fill:#040404;stroke-width:0.598737"
       d="m 452.39263,753.93419 c -17.40367,-1.97409 -36.85277,-11.74154 -51.3138,-25.77011 l -5.86335,-5.688 0.005,-13.52995 0.005,-13.52995 -6.12118,-4.13279 c -3.36621,-2.27303 -8.20425,-5.21051 -10.75076,-6.52773 l -4.63002,-2.39495 -5.86374,-5.77371 c -3.22507,-3.17553 -8.03549,-8.16002 -10.68984,-11.07663 l -4.82609,-5.30293 -3.42473,-7.14658 c -1.88359,-3.93063 -3.84446,-8.99204 -4.35747,-11.2476 -0.51302,-2.25555 -1.6047,-5.77538 -2.42597,-7.82184 -1.99723,-4.97675 -3.13917,-12.88455 -3.71833,-25.74885 -0.30134,-6.69334 -0.73868,-10.91114 -1.17677,-11.34924 l -0.69721,-0.6972 -3.25223,1.10547 c -2.1256,0.72252 -4.02893,0.97943 -5.4943,0.74163 l -2.24206,-0.36383 -2.73517,-2.61696 c -1.50434,-1.43932 -4.00117,-3.62492 -5.54851,-4.85688 -1.58272,-1.26012 -3.39033,-3.43181 -4.13238,-4.96469 l -1.31903,-2.72476 -0.42329,-6.83314 -0.42328,-6.83316 -2.76459,-5.53292 -2.7646,-5.53294 -1.19422,-8.06321 c -0.65682,-4.43476 -1.7607,-9.66183 -2.45306,-11.61571 -0.69235,-1.95387 -1.6625,-6.53421 -2.15588,-10.17853 -2.22641,-16.44526 2.37516,-30.5706 11.46262,-35.18653 1.31722,-0.66907 2.84086,-1.60784 3.38586,-2.08616 l 0.99091,-0.86967 3.49961,0.61252 c 6.01362,1.05252 7.99015,1.21001 7.99015,0.63664 0,-0.30493 -0.52307,-2.5108 -1.16236,-4.90194 -0.6393,-2.39114 -1.33534,-6.23354 -1.54677,-8.53868 -0.21143,-2.30514 -1.33339,-8.7715 -2.49326,-14.36969 l -2.10884,-10.17853 -0.27415,-17.26155 -0.27413,-17.26156 0.91303,-3.69423 c 0.50218,-2.03184 1.20217,-7.11833 1.55556,-11.30334 0.62535,-7.40582 1.15625,-9.92606 4.45117,-21.13027 0.87157,-2.96375 2.10663,-7.87882 2.74456,-10.92238 0.63793,-3.04356 1.69079,-6.57443 2.3397,-7.8464 0.6489,-1.27197 1.36511,-3.76626 1.59157,-5.54289 0.49491,-3.88262 0.45105,-3.79082 6.1199,-12.81002 8.30657,-13.21584 9.19409,-14.15297 20.87549,-22.0424 17.76405,-11.99755 38.62802,-20.35736 71.74812,-28.74817 39.56138,-10.02266 65.22031,-12.0445 84.12254,-6.62856 20.39586,5.8439 35.32271,21.80364 41.06573,43.90735 0.81114,3.12191 1.77194,5.85984 2.1351,6.08428 0.36317,0.22445 1.94032,0.57789 3.50479,0.78543 11.24618,1.49186 25.03164,10.05223 33.83693,21.01175 3.68197,4.58277 5.48412,7.83167 9.13319,16.46527 3.3072,7.82472 4.00588,11.50464 3.92716,20.68424 l -0.067,7.8114 -1.26396,2.35826 c -0.84617,1.57877 -1.26509,3.44967 -1.26741,5.66018 -0.004,3.34502 -0.13365,4.27323 -2.38754,17.03031 -0.69404,3.92826 -1.52872,9.31689 -1.85486,11.97474 -0.77737,6.33505 -6.13216,25.32656 -9.55023,33.8712 -0.59278,1.48187 -2.19509,5.65806 -3.56067,9.28042 -1.36559,3.62236 -2.73402,6.84207 -3.04096,7.15491 -0.30694,0.31284 -0.55807,0.95047 -0.55807,1.41696 v 0.84815 l 1.34716,-0.33433 c 0.74094,-0.18388 4.02037,-1.14508 7.28764,-2.13601 l 5.94048,-1.80168 4.23805,1.96499 c 7.18784,3.33269 11.50388,9.70544 13.31067,19.65355 l 0.90203,4.96652 -0.33571,6.04365 c -0.44466,8.0053 -1.48105,12.69549 -5.80888,26.28814 -4.86897,15.29222 -4.53461,14.02187 -5.90966,22.45264 -1.93599,11.86999 -2.24652,13.3066 -3.51271,16.25098 -0.68515,1.59325 -2.14768,3.50965 -3.42702,4.49053 -1.22748,0.94112 -3.90216,3.09717 -5.94374,4.79123 -4.54178,3.76868 -7.02074,5.09775 -9.09121,4.87412 l -1.58,-0.17065 -0.54263,1.79621 c -0.96027,3.17875 -2.85049,14.20282 -3.43912,20.05769 -0.31453,3.1284 -1.24347,9.0559 -2.0643,13.17221 l -1.49243,7.48421 -3.02226,5.82497 c -1.66224,3.20373 -3.02777,6.16748 -3.03451,6.5861 -0.007,0.41863 -1.50604,2.78188 -3.33179,5.25167 -1.82574,2.46979 -4.66581,6.41917 -6.31126,8.7764 -2.7884,3.99459 -5.81099,6.66626 -13.0967,11.57618 -1.15257,0.77672 -3.58947,2.81308 -5.41533,4.52523 -1.82587,1.71216 -4.42603,3.67739 -5.77814,4.36718 -2.02565,1.03342 -9.07937,6.03223 -11.2111,7.94506 -0.30288,0.27177 -0.62614,1.64737 -0.71837,3.05689 -0.0922,1.40952 -0.47746,6.73894 -0.85606,11.84318 l -0.68837,9.28042 -3.08379,3.19226 c -9.81332,10.15851 -25.31506,19.9731 -38.57974,24.42591 -8.66764,2.90962 -19.67018,4.18405 -27.98242,3.2412 z m 17.64086,-10.19599 c 13.9836,-2.84968 28.12618,-10.43625 39.07906,-20.96337 l 4.06413,-3.90615 v -7.32704 -7.32703 l -1.04779,0.0134 c -0.57628,0.007 -2.52966,0.77446 -4.34084,1.70463 -17.97509,9.23149 -21.29893,11.1861 -21.87642,12.86466 -2.05383,5.96977 -3.11954,7.96428 -5.85743,10.96238 l -3.1011,3.39584 -4.37401,1.9948 c -4.71954,2.15238 -7.87656,2.71938 -4.12862,0.7415 3.3498,-1.76778 6.72984,-5.41905 8.78459,-9.48948 2.19199,-4.34231 2.30777,-5.89905 0.46646,-6.27163 -2.32981,-0.47144 -18.49816,-1.17763 -23.45072,-1.02427 -5.65363,0.17507 -16.1228,-1.3657 -20.55994,-3.02585 -1.75104,-0.65514 -5.54411,-1.67477 -8.42904,-2.26583 -6.19807,-1.26985 -9.96407,-3.06221 -15.10765,-7.19021 -2.07855,-1.66814 -4.06499,-2.93708 -4.41434,-2.81985 -0.41306,0.13859 -0.58895,2.90191 -0.50301,7.9022 l 0.13216,7.68909 2.26279,2.34531 c 3.65398,3.78722 14.0966,11.36769 19.76539,14.34803 15.42236,8.10822 28.6966,10.48959 42.63633,7.64886 z m 54.9091,-52.05446 c 1.36702,-0.62072 3.08764,-1.94302 3.8236,-2.93847 0.73596,-0.99543 3.01854,-2.63716 5.07239,-3.64827 2.05386,-1.01111 5.48678,-3.25285 7.6287,-4.98165 5.92808,-4.78469 10.69203,-8.42045 12.52168,-9.55632 0.90756,-0.56343 2.29478,-2.0453 3.08269,-3.29305 3.50642,-5.5528 8.79388,-14.9941 8.79388,-15.70237 0,-0.42779 1.08655,-3.19086 2.41455,-6.14016 l 2.41454,-5.36237 1.17154,-7.58956 c 0.64434,-4.17425 1.17438,-9.39722 1.17787,-11.60657 0.004,-2.20937 0.2816,-5.98141 0.61803,-8.38232 0.33643,-2.40092 0.89179,-12.44825 1.23413,-22.32741 0.34234,-9.87916 0.72592,-19.98284 0.85239,-22.45263 0.12647,-2.46979 -0.12558,-7.58899 -0.56011,-11.37601 -0.50866,-4.43299 -0.61424,-8.16502 -0.29642,-10.47789 0.80353,-5.84757 1.71402,-22.30261 2.12028,-38.31917 l 0.37967,-14.96842 -1.32247,-7.73195 c -0.72736,-4.25257 -1.87273,-9.50649 -2.54527,-11.67537 -0.68037,-2.19417 -1.31774,-6.20095 -1.43686,-9.03268 -0.30041,-7.14184 -1.30982,-15.72699 -2.42873,-20.65643 -0.52323,-2.30513 -1.01715,-6.88547 -1.09761,-10.17852 l -0.14627,-5.98737 -2.19997,-7.47702 c -1.20998,-4.11236 -2.55261,-8.15383 -2.98363,-8.98105 -0.43102,-0.82722 -2.24688,-4.19836 -4.03524,-7.49141 l -3.25157,-5.98737 -6.35292,-6.16895 c -3.49411,-3.39291 -8.58228,-7.83854 -11.30704,-9.87916 -2.72477,-2.04061 -5.51457,-4.15023 -6.19956,-4.68804 -1.19907,-0.94142 -18.23431,-8.30945 -21.30313,-9.21396 -1.58625,-0.46754 -4.60494,-2.01782 -10.47789,-5.38103 -1.97583,-1.13148 -4.53543,-2.51452 -5.688,-3.07343 l -2.09558,-1.01619 -16.46527,-0.23783 -16.46526,-0.23784 -6.3324,1.17345 c -3.48282,0.64541 -7.5243,1.76636 -8.98105,2.49101 -1.45677,0.72465 -5.20826,2.20019 -8.33666,3.27897 -3.1284,1.07878 -9.99891,3.64659 -15.26779,5.70625 -5.26889,2.05967 -12.67826,4.94451 -16.46527,6.41078 -9.19877,3.5616 -14.80172,6.18779 -15.98046,7.49029 -0.53337,0.58936 -1.23311,1.07157 -1.55498,1.07157 -0.32186,0 -3.74264,1.75989 -7.60172,3.91087 l -7.01651,3.91088 -3.23243,4.01625 c -1.77784,2.20893 -3.79886,4.55787 -4.49116,5.21986 -1.31726,1.25959 -5.27836,7.4701 -8.02336,12.57962 -0.88457,1.64653 -2.62091,4.87971 -3.85855,7.18484 -1.23763,2.30514 -2.58042,4.59531 -2.98396,5.08927 -1.29641,1.58685 -5.64961,15.70943 -6.36722,20.65642 -0.38217,2.63444 -1.04686,6.13706 -1.47711,7.78358 -1.45597,5.57195 -2.55986,27.61487 -1.48362,29.62583 0.29831,0.55739 0.64846,12.03681 0.77813,25.50981 l 0.23576,24.49637 -0.7961,2.99369 c -1.02605,3.85845 -1.01336,6.995 0.0541,13.38576 2.27464,13.6175 2.98507,27.64845 1.87407,37.01254 -0.33314,2.80786 -0.2615,6.22937 0.20683,9.87916 0.47762,3.72219 0.53703,6.84071 0.1782,9.35451 -0.5873,4.11434 -0.0311,9.35657 1.34675,12.69436 0.4758,1.15256 1.29753,4.38574 1.82607,7.18484 1.24152,6.57499 5.27294,18.90144 7.93068,24.24884 1.1457,2.30514 3.49029,6.35848 5.21022,9.00743 l 3.12714,4.81628 5.57579,4.7043 5.57579,4.70429 3.68077,1.28616 c 2.02443,0.70739 4.60937,1.9805 5.74433,2.82912 1.13495,0.84863 3.11629,1.88061 4.40296,2.2933 1.28667,0.41269 3.87071,1.80121 5.74231,3.08559 4.73416,3.24882 6.47365,2.47585 4.54778,-2.02088 -0.46314,-1.08142 -1.50986,-4.66053 -2.32603,-7.95358 -0.81617,-3.29305 -2.01385,-7.46924 -2.66152,-9.28042 -1.4595,-4.08149 -2.39882,-11.86386 -2.89065,-23.94948 -0.72692,-17.86275 -0.82156,-20.72563 -0.98958,-29.93685 l -0.16928,-9.28042 1.02772,-1.87734 c 1.63193,-2.98108 6.15907,-6.55737 10.51991,-8.31038 2.36972,-0.95261 9.30318,-2.59483 16.89238,-4.00103 l 12.87284,-2.38522 8.38232,0.32773 c 8.56351,0.33482 15.04578,1.50043 17.58051,3.16125 l 1.42054,0.93077 -0.2867,2.9837 c -0.18838,1.96045 -0.7232,3.42021 -1.55949,4.25651 l -1.2728,1.27279 -19.15564,1.92542 c -19.07586,1.91739 -26.21859,2.95923 -25.46292,3.714 0.34227,0.34186 32.30022,0.81416 49.39292,0.72997 33.65439,-0.16577 49.661,-0.39949 49.99177,-0.72997 0.86664,-0.86587 -14.14391,-2.91955 -34.64973,-4.74064 l -8.30806,-0.73782 -1.48031,-1.27331 -1.48032,-1.27331 -0.31998,-2.83892 -0.31999,-2.83891 1.02084,-1.12801 c 0.56146,-0.62041 2.82005,-1.62418 5.0191,-2.2306 l 3.99826,-1.10258 11.67537,0.0366 11.67537,0.0365 3.89179,0.96499 c 6.87544,1.70479 20.29765,5.78854 23.3712,7.11074 1.64007,0.70554 3.78828,2.20117 4.7738,3.32361 l 1.79185,2.04081 0.0154,6.71496 c 0.009,3.69322 0.27571,9.3918 0.59382,12.66349 l 0.57837,5.94855 -0.88861,10.81609 c -0.93496,11.38027 -1.63354,16.52605 -2.67232,19.6845 -1.4426,4.38627 -3.64512,11.78382 -4.75758,15.97917 -1.93474,7.29637 -4.70518,15.95717 -5.75191,17.98131 -0.53614,1.0368 -0.82906,2.26492 -0.65091,2.72916 l 0.32389,0.84406 3.16217,-0.0132 c 1.79272,-0.007 4.23854,-0.5019 5.64764,-1.14172 z m 10.87806,-91.16427 -0.28387,-3.4067 -1.60445,-2.42448 -1.60445,-2.42448 -3.73791,-1.87781 c -5.6095,-2.81802 -12.80817,-8.07451 -17.5159,-12.79016 -4.12425,-4.1312 -10.4538,-12.06928 -10.46511,-13.12462 -0.003,-0.29537 2.48649,1.87196 5.53256,4.8163 3.04608,2.94434 7.69377,6.95155 10.32822,8.90493 2.63444,1.95337 6.24343,4.8537 8.01997,6.44518 1.77655,1.59147 4.7792,3.67558 6.67256,4.63134 5.24503,2.64768 7.4638,7.3874 5.75902,12.3024 l -0.81677,2.3548 z m -153.76736,-2.13481 c 0,-1.2963 0.61386,-3.51391 1.36683,-4.93779 l 1.36682,-2.5847 5.34817,-2.86762 c 5.7564,-3.0865 18.48217,-13.29921 24.02215,-19.2783 3.42414,-3.69555 4.36527,-3.35856 1.51657,0.54303 -3.39436,4.64893 -17.68195,16.84133 -24.47661,20.88724 l -5.25214,3.12741 -1.94589,3.73191 -1.9459,3.7319 z m 73.34528,-14.4784 c -0.98792,-0.2411 -4.30307,-1.75243 -7.367,-3.3585 l -5.5708,-2.92012 -6.11898,-0.33956 -6.11898,-0.33956 -2.16711,-1.33935 c -2.86218,-1.76892 -4.3431,-4.92601 -4.30944,-9.18705 l 0.0266,-3.37604 1.61806,-2.76101 c 1.70527,-2.90982 3.19049,-3.74524 2.51357,-1.41385 -0.86756,2.98794 -1.06145,7.56543 -0.40475,9.55526 0.81801,2.47857 3.04145,4.73942 4.61999,4.69772 5.82292,-0.15383 10.45802,-0.48423 10.73931,-0.76551 0.18807,-0.18808 0.0993,-1.67718 -0.19735,-3.30911 -0.29661,-1.63193 -0.36265,-4.15184 -0.14674,-5.59981 l 0.39255,-2.63266 0.7592,2.65208 0.7592,2.65208 3.78434,3.78434 3.78433,3.78435 h -1.1067 c -3.06135,0 -1.81977,2.74922 2.05677,4.55427 l 3.0526,1.4214 3.40376,0.006 c 4.02285,0.007 5.4866,-0.48555 10.66656,-3.58868 2.14048,-1.28228 5.13169,-2.65989 6.64712,-3.06133 l 2.75532,-0.72991 3.4856,0.70001 3.48559,0.7 1.44898,-0.94941 c 0.79694,-0.52217 1.99225,-2.17754 2.65623,-3.67861 l 1.20726,-2.7292 -0.28191,-3.35735 c -0.15506,-1.84654 -0.48292,-3.82886 -0.72859,-4.40514 -0.92742,-2.17557 0.87977,-0.96022 2.3808,1.6011 1.97239,3.36562 2.43782,6.25276 1.52735,9.47434 -0.82132,2.90616 -2.01194,4.54598 -4.47007,6.15661 l -1.7173,1.12522 -6.43631,0.37948 -6.4363,0.37949 -4.70778,2.73853 c -6.59847,3.83836 -10.45993,4.70606 -15.48505,3.47964 z m 20.63807,-57.86417 c -2.21764,-5.83283 -2.23134,-11.77001 -0.0386,-16.7271 1.57836,-3.56816 2.08504,-3.22514 1.21673,0.82371 -0.36369,1.69581 -0.57135,6.31583 -0.46147,10.26672 0.10987,3.95088 0.12574,7.18306 0.0353,7.18261 -0.0905,-4.5e-4 -0.42886,-0.69612 -0.75196,-1.54594 z m -81.48733,-4.45271 c -2.74101,-0.46314 -8.71582,-2.79345 -8.2477,-3.21678 0.13322,-0.12047 2.39766,0.17333 5.03211,0.65288 l 4.78989,0.8719 9.57979,-0.32142 9.57979,-0.32142 -1.43015,0.58532 c -2.16529,0.8862 -11.27381,2.36802 -14.06575,2.2883 -1.35641,-0.0387 -3.7135,-0.28118 -5.23798,-0.53878 z m 119.82485,0.29433 c -0.49396,-0.0968 -2.79006,-0.48316 -5.10244,-0.85863 -7.7444,-1.25748 -6.38855,-1.80459 3.60559,-1.4549 l 9.57979,0.33519 5.06586,-0.92249 c 2.78622,-0.50737 5.15411,-0.83423 5.26198,-0.72637 0.46727,0.46728 -5.30605,2.69638 -8.52443,3.29133 -3.25822,0.60231 -7.74791,0.75484 -9.88635,0.33587 z m 38.31916,-2.67882 c -2.83912,-1.88734 -2.87983,-2.38732 -0.0763,-0.93758 1.44016,0.74474 3.62549,2.7385 2.99366,2.73123 -0.12265,-0.001 -1.43544,-0.80855 -2.91731,-1.79365 z m -187.48802,0.0338 c 0.77743,-0.6772 1.72044,-1.22715 2.09558,-1.22211 0.71452,0.01 -0.28051,0.80203 -2.31159,1.8409 l -1.19747,0.6125 z m 81.52979,-6.36158 c -0.0195,-6.45887 -0.91104,-10.48478 -3.41829,-15.43599 -1.72896,-3.41429 -1.353,-4.38117 0.72441,-1.86297 4.25466,5.15744 5.89218,11.78649 4.48527,18.15731 -1.27812,5.78759 -1.77203,5.55093 -1.79139,-0.85835 z m -82.15743,-1.26609 c 0.43221,-0.17296 0.94863,-0.15169 1.14758,0.0472 0.19896,0.19895 -0.15468,0.34046 -0.78584,0.31447 -0.6975,-0.0287 -0.83937,-0.17061 -0.36174,-0.36174 z m 2.80658,-4.03958 c -2.98312,-0.92518 -7.27072,-3.10391 -7.80291,-3.96501 -0.77553,-1.25484 0.14053,-1.13782 3.25932,0.41634 l 3.15203,1.57072 3.68946,-0.67128 c 8.64828,-1.57352 13.27416,-2.94684 16.68582,-4.95368 9.3943,-5.52598 23.57409,-4.44296 33.85481,2.58573 3.21995,2.20141 3.36037,3.40963 0.16158,1.39032 -1.31067,-0.82739 -2.87138,-1.50435 -3.46823,-1.50435 h -1.0852 l -0.72062,2.69432 -0.72061,2.69431 h -10.7585 -10.7585 l -0.6198,-1.15811 c -0.34089,-0.63696 -0.6198,-1.79552 -0.6198,-2.57457 0,-0.77905 -0.31152,-1.72797 -0.69225,-2.1087 l -0.69224,-0.69224 -6.30767,3.30814 -6.30767,3.30814 -3.92703,0.20135 c -2.15988,0.11073 -5.00477,-0.1329 -6.32199,-0.54143 z m 37.28783,-4.86579 c 2.60745,-1.82633 0.75388,-4.11081 -3.03781,-3.74403 l -1.91823,0.18556 v 1.47916 c 0,0.97667 0.5085,1.73641 1.49685,2.23644 1.89039,0.95638 1.86798,0.9574 3.45919,-0.15713 z m 99.9369,4.67416 c -0.14084,-0.24698 -0.43838,-1.45942 -0.6612,-2.69432 -0.25622,-1.41997 -0.73621,-2.24526 -1.30585,-2.24526 -1.10135,0 -4.35543,1.60954 -5.78082,2.85932 -0.61188,0.53649 -1.04779,0.64296 -1.04779,0.25593 0,-0.82098 4.0154,-3.60924 8.35219,-5.79969 3.49695,-1.76626 10.4146,-3.24807 15.32181,-3.28204 4.1722,-0.0289 9.40558,1.39629 14.2254,3.87391 2.24748,1.15531 4.96254,2.09257 6.06178,2.09257 1.09506,0 3.16808,0.4153 4.60673,0.92288 4.66278,1.64513 8.66263,1.19955 14.59884,-1.62626 l 2.39495,-1.14007 -2.58164,2.38307 c -1.41989,1.31069 -3.72777,2.9379 -5.12861,3.61604 l -2.54699,1.23297 h -4.56575 -4.56576 l -6.73644,-3.30612 -6.73643,-3.30613 -0.68496,0.7615 c -0.37673,0.41881 -1.00928,1.90657 -1.40565,3.30612 l -0.72069,2.54463 h -10.41852 c -5.7302,0 -10.53376,-0.20207 -10.6746,-0.44905 z m 17.01054,-5.65138 0.62132,-1.16095 -0.71359,-0.85984 c -0.41635,-0.50166 -1.77872,-0.85983 -3.27055,-0.85983 h -2.55694 l -0.37376,0.97399 c -0.69018,1.79859 2.26338,3.95901 4.58311,3.35239 0.599,-0.15664 1.36868,-0.80723 1.71041,-1.44576 z m 27.81983,-20.5451 c -11.79458,-5.72286 -23.93781,-7.84432 -36.23172,-6.32981 -5.97753,0.73638 -8.40996,1.38515 -17.09494,4.55948 -2.96375,1.08324 -6.39121,2.15569 -7.61657,2.38323 l -2.22793,0.41371 -1.81354,-1.81353 -1.81354,-1.81354 v -1.92126 -1.92125 l 2.13417,-2.01278 c 2.75204,-2.59551 8.89357,-6.23286 14.93923,-8.84782 6.09951,-2.63826 13.64373,-3.94552 22.78362,-3.94794 l 7.22585,-0.002 3.25204,0.96543 c 7.93407,2.35536 13.44977,6.56286 18.16577,13.85725 2.17724,3.36762 4.54522,8.00465 4.54522,8.90055 0,0.46794 -1.04222,0.0559 -6.24766,-2.46981 z m -185.94689,1.47578 c 0,-2.02152 4.46169,-9.67741 7.67433,-13.16852 6.72769,-7.31083 12.4584,-9.56192 24.33421,-9.55877 11.81812,0.003 22.58984,2.5688 29.68704,7.071 3.85921,2.44814 10.15285,8.44586 10.15285,9.67547 0,1.26552 -2.04218,3.97648 -3.63945,4.83132 l -1.15164,0.61634 -4.04088,-1.77343 c -2.22248,-0.97539 -7.13934,-2.66624 -10.92635,-3.75745 l -6.88547,-1.98401 -10.17853,0.0261 -10.17853,0.0261 -6.12291,1.6212 c -3.36759,0.89166 -8.62151,2.71775 -11.67537,4.05797 -3.05385,1.34023 -5.88925,2.57842 -6.30088,2.75153 -0.41163,0.17311 -0.74842,-0.0226 -0.74842,-0.43491 z m 73.5928,200.73692 c 2.15065,-1.59413 4.14154,-5.31797 4.55485,-8.51956 0.19131,-1.48188 0.73826,-4.54603 1.21546,-6.80924 0.4772,-2.2632 0.86742,-5.22695 0.86717,-6.58611 -5.8e-4,-3.02017 -2.59353,-8.70352 -6.41261,-14.0555 l -2.76488,-3.87463 1.44561,0.41793 c 0.79508,0.22987 3.46635,1.00273 5.93614,1.71746 l 4.49052,1.29951 12.87285,-0.0133 12.87284,-0.0133 4.49053,-1.28621 c 2.46979,-0.70742 5.09461,-1.46215 5.83294,-1.67717 l 1.34241,-0.39095 -3.17313,5.30754 c -3.83865,6.42071 -5.19969,9.71594 -5.19969,12.58898 0,2.12783 4.0351,14.96852 5.73946,18.26439 1.27052,2.45692 4.12794,3.73817 8.17995,3.66784 l 3.44152,-0.0598 2.58787,-1.51659 c 1.42333,-0.83412 3.36279,-2.6348 4.30991,-4.0015 0.94713,-1.3667 2.81424,-3.24113 4.14914,-4.16541 5.11613,-3.54236 5.93772,-5.29847 6.87649,-14.69807 0.32985,-3.30269 1.03201,-7.20944 1.56035,-8.68168 3.09177,-8.61526 8.34569,-35.38079 7.65209,-38.98271 -0.39967,-2.07545 -3.58679,-5.90503 -4.91441,-5.90503 -0.59303,0 -2.83886,2.23793 -5.19536,5.17706 -13.00128,16.21577 -27.32042,23.66536 -47.25986,24.58714 -15.1406,0.69993 -28.43899,-2.80031 -38.82421,-10.21886 -4.00227,-2.85896 -11.69116,-10.61661 -15.95991,-16.1026 -1.47337,-1.89351 -3.126,-3.44274 -3.6725,-3.44274 -1.44333,0 -4.5906,3.84193 -5.01694,6.12426 -0.50655,2.71171 0.60316,10.96996 3.00878,22.39084 1.1185,5.31019 2.20291,12.18069 2.4098,15.26779 0.76013,11.34252 2.06542,15.49672 6.55925,20.87549 1.20223,1.43898 2.70292,3.6298 3.33485,4.8685 1.25939,2.46861 3.60628,4.44931 7.74614,6.53751 7.37016,3.7176 11.72447,4.27476 14.91658,1.90866 z m 28.37919,-52.83228 c 12.10432,-1.0029 21.41102,-4.11362 29.43259,-9.8377 5.98251,-4.26903 5.70205,-5.71934 -0.87536,-4.52663 -4.70922,0.85394 -5.21851,0.42946 -1.09115,-0.90946 6.45143,-2.09283 14.14423,-7.18743 12.83297,-8.4987 -0.92215,-0.92215 -23.86949,0.25861 -38.91394,2.00232 -4.56903,0.52956 -9.55352,0.78658 -11.07663,0.57114 -12.69454,-1.79561 -39.96578,-3.41807 -42.31302,-2.51735 l -1.0688,0.41013 2.04479,2.12989 c 2.26189,2.35604 5.78298,4.31068 10.61557,5.89296 4.13893,1.35517 3.60524,1.79519 -1.06334,0.8767 l -3.6856,-0.7251 -0.65626,0.65627 -0.65626,0.65626 1.89214,1.76753 c 7.04674,6.58264 18.03863,10.86114 30.83784,12.0034 3.01114,0.26872 5.74423,0.52137 6.07354,0.56144 0.3293,0.0401 3.78122,-0.19082 7.67092,-0.5131 z m 128.50989,-39.47861 c 1.29971,-1.29971 2.8159,-3.23871 3.36931,-4.30891 l 1.00621,-1.94579 -0.50876,-4.82184 c -0.27983,-2.65201 -0.47371,-6.30371 -0.43088,-8.11489 0.0795,-3.35957 3.95621,-19.33492 6.11452,-25.19686 0.65675,-1.78372 2.03491,-6.3416 3.06257,-10.12861 l 1.86847,-6.88548 0.34652,-6.48551 c 0.21297,-3.98567 0.0708,-8.02438 -0.36891,-10.4779 -1.32017,-7.36693 -5.47515,-12.67407 -9.92258,-12.67407 -3.78739,0 -9.29309,4.92102 -11.7697,10.51982 -1.25956,2.84745 -2.26406,11.03494 -1.35377,11.03439 0.29474,-1.7e-4 2.48711,-2.13375 4.87193,-4.74127 4.55091,-4.97587 6.72965,-6.12579 9.15111,-4.82986 1.50071,0.80315 2.98816,4.0295 2.95468,6.40885 l -0.0234,1.66576 -0.78293,-1.79644 c -2.04556,-4.69359 -4.61834,-4.26751 -8.37773,1.38742 -1.49248,2.24501 -2.99933,4.83337 -3.34856,5.75193 l -0.63497,1.6701 1.18447,1.91652 c 3.90559,6.31936 3.90604,18.32914 10e-4,25.37467 l -1.23004,2.21875 0.35723,-1.49684 c 1.90361,-7.97625 -0.10095,-22.15327 -3.13237,-22.15327 -0.45119,0 -1.54637,1.54924 -2.43374,3.44274 l -1.6134,3.44274 0.0616,15.26779 c 0.0339,8.39729 0.17501,19.68094 0.31362,25.0748 l 0.25203,9.807 2.05871,1.71868 2.0587,1.71868 h 2.26788 2.26788 z m -257.05044,-0.92418 1.58934,-1.04138 -0.39954,-5.76893 c -0.21975,-3.17291 -0.65425,-10.07984 -0.96555,-15.34873 -0.31131,-5.26888 -0.83402,-11.46581 -1.16158,-13.77094 -0.32756,-2.30514 -0.61392,-6.07718 -0.63635,-8.38232 -0.0464,-4.7672 -2.06593,-11.49944 -3.75755,-12.52602 l -1.06483,-0.64619 -0.58185,0.8981 c -1.35198,2.08684 -2.0043,6.07735 -1.95745,11.97474 l 0.0499,6.28674 1.51868,5.08926 c 0.83526,2.7991 1.67553,5.62813 1.86727,6.28674 0.96151,3.30285 -3.51293,-7.03791 -5.05935,-11.69252 l -1.79051,-5.3893 v -5.89409 -5.89408 l 1.78862,-3.52712 c 0.98375,-1.93991 1.79205,-3.9471 1.79621,-4.46044 0.01,-1.22313 -3.82534,-7.58737 -5.85803,-9.72076 l -1.59405,-1.67303 -1.49409,0.17619 -1.49408,0.17619 -1.35234,2.39495 -1.35233,2.39495 0.004,-1.49684 c 0.002,-0.82327 0.51882,-2.63242 1.14889,-4.02035 2.19828,-4.84235 5.33631,-4.01371 11.79164,3.11376 2.2411,2.47446 4.31364,4.49901 4.60565,4.49901 0.66516,0 -0.028,-5.77002 -1.14502,-9.53145 -1.08664,-3.6591 -4.89531,-8.94443 -7.99182,-11.09031 l -2.4456,-1.6948 h -2.52326 -2.52327 l -2.52007,2.78351 c -1.38662,1.53157 -3.01185,4.1939 -3.61347,5.91933 l -1.0937,3.13582 0.0235,8.68169 0.0235,8.68168 1.35979,4.7899 c 0.74789,2.63444 1.57495,7.75364 1.83793,11.376 l 0.47814,6.58611 2.1277,4.22202 c 2.5474,5.0548 3.42981,9.37829 3.42981,16.80476 0,6.04847 0.46913,7.87162 2.71115,10.53611 0.814,0.96738 1.48001,2.23532 1.48001,2.81762 0,1.46089 1.73345,2.89352 5.17246,4.27481 3.38614,1.36006 7.19238,1.22868 9.57182,-0.33039 z M 589.21627,427.81928 c 0,-1.1956 0.43449,-4.90029 0.96553,-8.23264 1.18427,-7.43152 0.85099,-11.17087 -1.59909,-17.94202 -3.16423,-8.74477 -7.71072,-14.86355 -14.23719,-19.16078 -5.13737,-3.3826 -9.89801,-5.11229 -15.33566,-5.57194 -6.45303,-0.54548 -6.73911,1.01376 -0.55591,3.02996 10.03303,3.27154 19.5792,13.06967 25.43053,26.10176 l 2.01622,4.49052 -0.14922,7.94212 -0.14923,7.9421 0.92428,1.78737 c 0.50836,0.98305 1.32151,1.78736 1.80701,1.78736 h 0.88273 z m 10.02502,-26.49987 c -0.40249,-8.99689 -1.71422,-14.62288 -5.01182,-21.49564 l -2.66938,-5.56343 -4.17691,-4.3972 -4.17692,-4.3972 -4.08535,-2.1468 c -4.78793,-2.51598 -9.94202,-3.97701 -14.0298,-3.97701 h -2.91779 l 0.23676,0.71029 c 0.13022,0.39066 2.09782,1.4985 4.37244,2.46186 14.83577,6.28337 25.17887,20.58565 29.9464,41.40945 1.09916,4.80097 1.31871,5.27676 2.18724,4.73998 0.41957,-0.25932 0.53025,-2.75927 0.32513,-7.3443 z m -251.316,-3.95748 c 0.82326,-0.47062 1.99054,-0.86522 2.59396,-0.87689 1.52897,-0.0296 7.85666,-2.81626 20.45741,-9.00937 5.9275,-2.91329 13.6063,-6.64615 17.064,-8.29526 3.45771,-1.64909 7.49918,-3.67097 8.98106,-4.49306 1.48187,-0.82209 6.8705,-3.27519 11.97474,-5.45133 5.10423,-2.17614 13.79121,-6.2551 19.30441,-9.06437 l 10.02398,-5.10775 5.62061,-0.84436 c 3.09133,-0.46439 7.87593,-1.68483 10.63244,-2.71208 2.7565,-1.02724 6.76313,-2.50675 8.90362,-3.2878 l 3.89179,-1.42009 9.13486,-0.0155 9.13487,-0.0154 6.8659,3.63731 c 3.77624,2.00051 7.12429,3.4776 7.44011,3.28241 0.35455,-0.21913 0.26377,-1.32427 -0.23731,-2.88888 -0.44636,-1.3937 -0.97447,-3.51784 -1.17358,-4.72031 l -0.36204,-2.1863 -2.67554,-2.1924 c -1.47153,-1.20582 -3.49774,-3.38745 -4.50268,-4.84807 -1.00493,-1.46063 -2.6901,-3.1171 -3.74482,-3.68107 l -1.91767,-1.0254 -5.08926,0.0919 c -2.79909,0.0505 -7.91829,0.6455 -11.376,1.32216 -3.45771,0.67666 -7.16488,1.23111 -8.23815,1.23211 -1.79891,0.002 -9.37454,2.88267 -16.60943,6.31655 -1.64653,0.78149 -4.20613,1.72181 -5.688,2.08959 -1.48188,0.36779 -4.71506,1.95664 -7.18485,3.53078 -2.46979,1.57414 -5.83768,3.61896 -7.48421,4.54405 -1.64653,0.9251 -3.82044,2.30546 -4.83091,3.06749 -1.01047,0.76202 -4.65896,2.70646 -8.10774,4.32096 -4.1947,1.96369 -7.38321,3.9524 -9.63169,6.00739 l -3.36118,3.07193 -10.68435,5.45907 c -5.87639,3.0025 -14.4212,7.31667 -18.98847,9.58705 -4.56727,2.27038 -9.68647,5.02908 -11.376,6.13045 -1.68953,1.10136 -4.41904,2.47818 -6.06556,3.05959 -3.29504,1.16351 -5.68801,3.31707 -5.68801,5.11894 0,1.36813 0.92232,1.45008 2.99369,0.26598 z m 13.60566,-21.58263 c 11.10796,-3.6663 16.97251,-7.06464 45.49007,-26.36018 21.27193,-14.39299 28.75574,-18.49903 46.66168,-25.60118 10.66338,-4.22949 20.28408,-6.3107 31.35335,-6.78255 l 8.08295,-0.34455 5.57676,0.97518 c 18.00786,3.14894 30.57884,11.99518 37.52765,26.40832 3.55896,7.38194 4.65693,12.56161 4.81782,22.72804 0.17644,11.14842 1.11747,11.3848 3.67076,0.92207 l 1.09585,-4.49053 -0.024,-8.38231 -0.024,-8.38232 -1.32763,-4.66326 c -2.62535,-9.22148 -6.0354,-15.2616 -12.35176,-21.87833 -8.90338,-9.32676 -20.59896,-15.3346 -34.04638,-17.48914 -6.38149,-1.02243 -20.50643,-0.41013 -28.20572,1.22269 -12.94166,2.74461 -27.0972,8.28216 -39.07862,15.2873 -12.93382,7.56197 -20.38671,13.12245 -38.86631,28.99754 -16.68147,14.33038 -19.64707,16.78763 -21.94592,18.18403 -1.17251,0.71223 -4.85364,2.94763 -8.18027,4.96755 -3.32664,2.01992 -7.53028,4.27402 -9.34143,5.00912 -1.81115,0.73509 -3.293,1.57467 -3.293,1.86573 0,1.19298 4.62641,0.37523 12.40818,-2.19322 z m 22.46962,-37.04095 c 13.85688,-3.51509 25.12154,-9.82051 40.41336,-22.62146 2.71677,-2.27424 4.93958,-4.39091 4.93958,-4.70371 0,-1.27124 -2.29282,-0.32794 -11.25699,4.63129 -19.60545,10.84629 -38.29144,19.26241 -48.85702,22.00508 -4.0135,1.04185 -4.24121,1.17878 -3.62319,2.17876 l 0.44755,0.72416 6.06772,-0.37126 c 3.33725,-0.20419 8.67829,-1.03348 11.86899,-1.84286 z"
       id="path4511" />
    <path
       id="rect4519"
       style="fill:#ffffff;fill-opacity:1;stroke:none;stroke-width:18.8976;stroke-dasharray:none"
       d="M 489.88086 303.16406 C 488.02989 303.11588 486.15297 303.1414 484.25391 303.24414 C 461.25466 304.48844 436.95697 314.43687 412.19922 332.74609 C 409.70911 334.58762 401.8149 341.1231 394.6543 347.26953 C 374.88558 364.23837 373.04403 365.74578 369.33008 368.01562 C 358.67881 374.52531 357.22491 375.50781 358.24414 375.50781 C 358.45272 375.50781 361.43749 374.47334 364.87695 373.20898 C 371.0868 370.9262 380.51638 365.66942 390.49219 358.92773 C 393.32192 357.01539 400.59474 352.0998 406.65625 348.00586 C 421.18965 338.18999 428.7283 333.63279 437.43555 329.39648 C 459.18847 318.81307 473.57233 315.15727 490.94336 315.79883 L 499.70508 316.12305 L 504.49414 317.4043 C 510.60846 319.03948 520.2756 323.76206 524.68555 327.26953 C 534.24716 334.87439 540.98579 347.53469 542.23633 360.24023 C 542.4308 362.21606 542.74313 364.50682 542.92969 365.33008 L 543.26953 366.82617 L 543.79688 365.0293 C 544.08767 364.04138 544.48899 360.80945 544.6875 357.8457 L 545.04883 352.45703 L 544.07422 346.88281 C 539.60683 321.30234 517.64533 303.88675 489.88086 303.16406 z M 423.10742 315.17578 C 422.96958 315.03794 419.1325 316.95529 414.58008 319.4375 C 402.2644 326.15264 387.38106 333.25122 379.31836 336.25586 L 372.17383 338.91797 L 374.56836 338.94141 C 375.88558 338.95391 378.84753 338.56552 381.14844 338.07812 C 390.89339 336.01394 400.80271 331.69219 409.83203 325.57031 C 416.2058 321.24889 423.48308 315.55144 423.10742 315.17578 z M 480.54102 333.61914 C 477.7406 333.62799 474.46723 333.9286 471.4668 334.51758 C 468.88572 335.02424 464.83871 335.6655 462.47266 335.94336 C 458.45855 336.41477 453.19546 338.28403 444.62109 342.2832 C 442.97457 343.05115 440.41547 343.99231 438.93359 344.37305 C 437.45172 344.75379 434.21784 346.35165 431.74805 347.92578 C 429.27826 349.49992 425.91019 351.54561 424.26367 352.4707 C 422.61714 353.3958 420.44406 354.77509 419.43359 355.53711 C 418.42311 356.29914 414.78476 358.24196 411.34961 359.85352 L 405.10547 362.7832 L 401.27344 366.21094 C 399.16608 368.09638 396.33668 370.11568 394.98633 370.69727 C 391.06904 372.38441 385.67857 375.06684 381.1543 377.58008 C 378.84916 378.86058 373.24129 381.74636 368.69141 383.99414 C 364.14153 386.24192 359.50349 388.77952 358.38477 389.63281 C 357.26604 390.48611 354.3959 391.94511 352.00586 392.875 C 349.61583 393.8049 347.55251 394.88546 347.42188 395.27734 C 347.27306 395.72377 347.60184 395.87295 348.30273 395.67578 C 348.91797 395.5027 350.09666 395.18347 350.91992 394.96484 L 350.91992 394.96289 C 353.70279 394.22385 362.40295 390.36083 371.20312 385.95508 C 376.01842 383.54433 383.05674 380.09035 386.84375 378.2793 C 390.63076 376.46826 394.94196 374.32544 396.42383 373.51953 C 397.9057 372.71361 403.02391 370.38053 407.79883 368.33398 C 412.57376 366.28743 421.60062 362.07952 427.85742 358.98242 L 439.23242 353.35156 L 443.77344 352.77344 C 446.2708 352.45611 450.58199 351.35129 453.35352 350.31836 C 456.12504 349.28542 460.14272 347.81759 462.2832 347.05664 L 466.17578 345.67383 L 475.39062 345.17188 L 484.60742 344.67188 L 487.06641 345.63672 C 488.41931 346.16739 491.12752 347.58273 493.08398 348.78125 C 495.04044 349.97976 496.95917 350.95898 497.34766 350.95898 L 498.05273 350.95898 L 497.57422 348.41602 C 496.87484 344.69987 496.60401 344.21847 494.33008 342.66602 C 493.19532 341.8913 491.41296 339.92549 490.36914 338.29883 C 489.32531 336.67217 487.7115 334.94879 486.7832 334.46875 C 485.66938 333.89277 483.34143 333.61029 480.54102 333.61914 z M 461.83594 358.59961 L 456.05664 359.58594 C 452.87812 360.12773 448.46623 361.26865 446.25195 362.12109 C 444.03767 362.97352 439.66746 364.54393 436.53906 365.61133 C 433.41065 366.67872 426.54037 369.23794 421.27148 371.29883 C 416.0026 373.35971 408.5917 376.2501 404.80469 377.7207 C 395.12743 381.47862 391.15644 383.33898 388.75781 385.23828 C 387.61414 386.14387 386.42986 386.88477 386.125 386.88477 C 385.82015 386.88477 382.68277 388.50062 379.1543 390.47656 L 372.73828 394.06836 L 367.7793 400.20703 C 361.98465 407.37664 360.02156 410.37605 354.75781 420.11328 C 352.62163 424.06495 350.62491 427.70331 350.32031 428.19727 C 349.31543 429.82686 345.54121 441.15099 344.93164 444.36523 C 344.60266 446.09995 344.33203 448.52771 344.33203 449.75977 C 344.33203 450.99183 343.91212 453.00692 343.39844 454.23633 C 342.36727 456.70428 342.1712 458.55587 341.36523 473.35938 L 340.8125 483.49414 L 341.52539 484.73438 L 342.23828 485.97461 L 342.05859 501.24219 C 341.95999 509.63901 342.16669 519.90969 342.51953 524.06641 L 343.16211 531.625 L 341.85938 537.53906 L 340.55859 543.45312 L 341.53125 550.03906 C 344.69159 571.44061 345.13904 578.9172 343.72852 586.71484 L 342.94336 591.05859 L 343.61719 596.89453 C 343.9887 600.10358 344.24886 605.9624 344.19531 609.91406 L 344.09961 617.09766 L 345.31641 620.0918 C 345.98575 621.73832 346.87544 625.10638 347.29492 627.57617 C 348.16776 632.71522 352.71795 646.77895 354.94531 651.22461 C 355.77066 652.87196 357.90199 656.53243 359.68359 659.35938 L 362.92383 664.5 L 368.13477 668.91406 L 373.3457 673.32812 L 377.19141 674.72461 C 379.30648 675.49234 381.76776 676.73573 382.66211 677.48828 C 383.55646 678.24082 385.20046 679.19049 386.31445 679.59961 C 389.09429 680.62052 394.10457 683.23969 395.375 684.33594 C 396.68515 685.46646 396.68065 685.31587 395.26367 680.72656 C 389.25854 661.2771 388.26835 655.42822 387.7832 636.55664 C 387.60965 629.80588 387.32325 619.74707 387.14648 614.20312 C 386.94237 607.80219 387.06175 603.24229 387.47461 601.70898 C 388.44949 598.08855 392.80929 593.791 398.08008 591.25586 L 402.50977 589.125 L 415.18359 586.80469 L 427.85742 584.48242 L 435.41211 584.47461 C 443.12911 584.46661 451.79541 585.61613 455.41602 587.12891 L 457.4375 587.97461 L 457.96094 589.96289 C 458.69147 592.74308 457.74674 596.43779 455.82031 598.33398 L 454.20117 599.92773 L 440.76172 601.19531 C 433.36995 601.89314 427.23299 602.55217 427.125 602.66016 C 426.90683 602.87834 453.33238 603.78228 458.99023 603.75 C 460.96606 603.7387 468.91562 603.50103 476.6543 603.22266 C 492.06438 602.66835 491.97404 602.43097 475.78125 600.90234 C 470.19722 600.3752 465.13151 599.67698 464.52344 599.35156 C 462.61433 598.32983 461.09028 595.13896 461.08789 592.1543 L 461.08594 589.36328 L 462.80664 587.91602 C 463.89028 587.0042 466.38176 586.04608 469.54297 585.32617 L 474.55859 584.18555 L 484.13867 584.2832 L 493.71875 584.38281 L 498.80664 585.54297 C 508.64798 587.78655 519.50877 591.15884 523.91992 593.33984 L 528.37695 595.54297 L 529.81055 598.23828 L 531.24219 600.93164 L 530.86523 605.29102 C 530.65761 607.6882 530.80073 612.94253 531.18359 616.9668 L 531.87891 624.2832 L 530.86914 635.95898 C 529.51652 651.59696 529.28453 652.99197 526.52539 662.00391 C 525.21471 666.28488 523.85739 670.86442 523.50977 672.18164 C 521.59423 679.44024 518.90679 687.89912 518.18945 688.92969 C 517.73732 689.57924 517.36914 690.32013 517.36914 690.57617 C 517.36914 691.55178 523.0751 691.02464 524.96289 689.875 C 526.01174 689.23517 527.14699 688.19486 527.48438 687.56445 C 527.82191 686.93377 530.11525 685.42102 532.58008 684.20312 C 535.04491 682.98523 538.79424 680.5919 540.91211 678.88281 C 546.78112 674.14663 551.56428 670.4946 553.36719 669.375 C 554.26196 668.81936 555.72474 667.06921 556.61719 665.48438 C 557.50964 663.89954 559.52056 660.44695 561.08594 657.8125 C 562.65131 655.17806 564.12984 652.34865 564.37305 651.52539 C 564.61625 650.70212 565.60342 648.32797 566.56641 646.25 C 569.19372 640.58071 569.35781 640.031 570.38477 633.40625 C 571.99656 623.0089 572.82152 610.23242 573.3125 588.06055 C 573.4547 581.6391 573.8163 573.4409 574.11523 569.84375 L 574.6582 563.30273 L 573.83789 556.37305 L 573.01758 549.44141 L 573.61328 544.65039 C 574.62657 536.51246 575.51378 518.37195 575.61719 503.63867 L 575.71484 489.56836 L 574.64062 483.89258 C 574.0494 480.77179 572.90954 475.96044 572.10938 473.19922 C 571.17029 469.95861 570.65625 466.65428 570.65625 463.88086 C 570.65625 458.91662 569.31923 447.75225 567.99609 441.66797 C 567.4948 439.36284 567.07994 435.27637 567.07422 432.58594 L 567.0625 427.69336 L 564.94336 420.31055 C 562.74621 412.65762 562.5762 412.26336 557.65234 403.34961 L 554.67578 397.96094 L 548.80664 392.0918 C 545.57875 388.86369 541.69759 385.37992 540.18164 384.34961 C 538.66569 383.3193 536.05724 381.31824 534.38477 379.9043 C 531.35283 377.34104 523.01861 373.39612 511.7793 369.20508 C 508.87007 368.12026 504.96336 366.31722 503.09766 365.19727 C 501.23196 364.07732 497.85372 362.24528 495.58984 361.125 L 491.47266 359.08789 L 476.6543 358.84375 L 461.83594 358.59961 z M 569.39453 361.19336 C 568.32859 361.22352 569.05539 362.06632 571.76953 363.52344 C 581.89484 368.95927 591.66405 381.95399 595.82812 395.52539 C 597.18844 399.95886 598.42582 401.67793 597.9043 398.41016 C 597.75977 397.50457 597.35061 394.91731 596.99414 392.66211 C 596.13409 387.22113 593.41984 379.92446 590.77344 375.9375 C 586.4858 369.4779 579.77736 364.17674 573.20898 362.05859 C 571.32009 361.44947 570.0341 361.17526 569.39453 361.19336 z M 559.60742 378.50195 L 564.38281 381.21875 C 572.84113 386.03106 578.99188 393.09798 584.31055 404.11523 L 587.12109 409.93555 L 587.01758 417.86914 C 586.96159 422.14721 587.09927 425.66314 587.32227 425.79883 L 587.32422 425.80078 C 587.32511 425.80111 587.32918 425.80252 587.33008 425.80273 C 587.33098 425.80284 587.33308 425.80273 587.33398 425.80273 L 587.33594 425.80273 L 587.33789 425.80078 C 587.33882 425.8006 587.34281 425.80105 587.34375 425.80078 C 587.58372 425.7116 588.21833 422.82979 588.76758 419.32031 L 589.78125 412.83789 L 589.18164 409.10352 C 588.08249 402.27839 584.71339 394.78092 580.32031 389.37695 C 576.182 384.28635 566.03797 378.55583 561.08984 378.51367 L 559.60742 378.50195 z M 530.24023 458.54102 L 534.89258 460.13281 C 540.4695 462.04202 543.57537 463.92318 547.27344 467.63281 C 552.26234 472.63732 558.5978 484.20101 557.14648 485.65234 C 556.75948 486.03933 555.1828 485.52538 552.55859 484.15625 C 539.7767 477.48753 527.77215 474.97168 514.54688 476.19141 C 508.68608 476.73193 504.47024 477.85405 493.7168 481.73633 C 491.41166 482.56855 488.62466 483.25712 487.52148 483.26562 L 485.51562 483.28125 L 483.47852 481.24414 L 481.44336 479.20898 L 481.44336 476.83594 C 481.44336 473.78587 482.68424 472.23898 487.99219 468.67773 C 494.25216 464.47775 501.90011 461.15053 508.38672 459.80273 L 514.07422 458.62109 L 522.1582 458.58008 L 530.24023 458.54102 z M 395.22461 458.55664 C 411.89273 458.52474 423.52981 462.5711 433.39453 471.83008 L 436.53906 474.78125 L 436.53906 476.88867 L 436.53906 478.99805 L 434.69531 480.83984 C 432.00307 483.53208 430.71329 483.63251 425.77539 481.53125 C 423.39484 480.51823 419.78978 479.26696 417.76562 478.75 C 415.74147 478.23305 412.93317 477.42514 411.52539 476.95508 C 410.11761 476.48503 406.34703 475.93158 403.14453 475.72656 C 390.82434 474.93788 375.88189 478.2956 365.88672 484.09766 C 364.40484 484.95787 362.82191 485.664 362.36719 485.66797 L 361.53906 485.67578 L 361.88672 483.53711 C 362.48418 479.85536 366.45219 472.71384 370.13086 468.69922 C 374.32818 464.11858 378.32489 461.43523 383.40234 459.78711 L 387.14258 458.57227 L 395.22461 458.55664 z M 438.81836 489.24609 C 440.48291 489.3013 445.9961 495.36361 448.36719 500.22656 C 450.77085 505.15635 451.17116 507.53942 450.31641 511.80859 C 449.12983 517.73514 446.16203 526.80469 445.12891 527.66211 L 444.15039 528.47461 L 444.53125 524.88867 C 444.74094 522.91552 445.08255 518.47137 445.29102 515.01367 L 445.66992 508.72656 L 444.71484 505.01172 C 444.18988 502.96783 442.54117 498.86401 441.04883 495.89258 C 439.55648 492.92115 438.33398 490.21479 438.33398 489.87891 C 438.33398 489.43128 438.51011 489.23587 438.81836 489.24609 z M 518.86523 494.67383 L 522.50195 495.25977 C 526.93417 495.97454 532.35397 497.79324 535.08398 499.48047 C 536.9559 500.63739 540.43525 501.42222 547.32617 502.24414 L 550.04102 502.56836 L 554.50977 501.25586 C 556.9682 500.53463 559.97387 499.15959 561.18945 498.19922 C 563.43295 496.42674 565.26758 495.92973 565.26758 497.09375 C 565.26758 498.68403 561.29074 503.25445 557.91211 505.54883 C 553.19753 508.75044 550.87893 509.56643 546.40625 509.59766 L 542.81445 509.62305 L 536.25 506.33008 C 532.63964 504.51956 529.40575 503.04124 529.06445 503.04297 C 528.72316 503.04497 528.04084 504.32425 527.54688 505.88672 L 526.64844 508.72656 L 515.87109 509.04688 C 509.94359 509.22287 504.76018 509.26253 504.35156 509.13477 C 503.94294 509.00703 503.29264 507.85345 502.9082 506.57031 C 502.52377 505.28717 501.86357 504.23633 501.44141 504.23633 C 501.01927 504.23633 498.97432 505.5314 496.89648 507.11523 C 492.20306 510.69277 491.76932 510.95238 491.43359 510.38281 C 490.23266 508.34535 496.55287 502.11093 503.01758 498.95508 L 508.08789 496.48047 L 513.47656 495.57617 L 518.86523 494.67383 z M 398.88867 495.00977 C 403.63672 494.80669 408.62718 495.68264 413.58398 497.65234 C 419.72252 500.09165 422.63308 502.13444 425.01172 505.66992 C 428.16553 510.35756 427.12977 512.01087 423.42969 508.19336 C 421.50469 506.20727 417.59599 503.72153 417.25195 504.26367 C 417.15665 504.41388 416.5392 505.61442 415.87891 506.93164 L 414.67773 509.32617 L 403.60547 509.12695 L 392.53125 508.92969 L 391.48438 507.71484 C 390.9081 507.04649 390.43555 505.89987 390.43555 505.16797 C 390.43555 502.64831 390.48041 502.63334 378.87695 508.8457 L 377.19922 509.74609 L 372.29102 509.52344 L 367.38477 509.30078 L 363.85938 507.66211 C 361.92077 506.76088 359.34087 505.14983 358.125 504.08203 C 356.90913 503.01422 355.41651 501.85553 354.80859 501.50586 C 353.07122 500.50653 354.26341 499.29853 356.51367 499.7793 C 357.55256 500.00126 358.6827 500.40726 359.02539 500.68164 C 359.86467 501.35364 378.22491 501.5972 380.82422 500.9707 C 381.95957 500.69706 384.12857 499.7415 385.64453 498.84766 C 389.63412 496.49531 394.14062 495.21284 398.88867 495.00977 z M 518.61523 500.04492 C 516.83644 500.04492 516.30377 500.57721 517.19336 501.4668 C 517.83649 502.10993 519.93526 501.64191 520.21484 500.79297 C 520.37628 500.30276 519.82441 500.04492 518.61523 500.04492 z M 402.00977 500.18555 C 401.69179 500.17784 401.4058 500.22601 401.20898 500.34766 C 400.87135 500.55632 400.74999 500.97861 400.93945 501.28516 C 401.38845 502.01167 404.20703 502.00983 404.20703 501.2832 C 404.20703 500.73399 402.96369 500.20867 402.00977 500.18555 z M 480.06055 501.04492 C 480.68888 501.05434 480.64835 502.6204 479.64648 505.82422 C 477.51166 512.65108 477.41862 522.55339 479.39844 532.22656 L 479.79688 534.17383 L 478.90625 534.17383 C 478.39576 534.17383 477.36982 532.70258 476.50391 530.73047 C 475.67252 528.83697 474.52949 525.85463 473.96484 524.10352 L 472.9375 520.91992 L 473.15039 516.22852 L 473.36523 511.53516 L 475.76953 506.89648 C 477.77684 503.02471 479.34843 501.03424 480.06055 501.04492 z M 316.42773 501.24219 L 314.50977 503.2207 C 313.4549 504.30905 311.99866 506.80205 311.27344 508.75977 L 309.95508 512.32031 L 309.97461 520.10352 L 309.99414 527.88672 L 311.56445 534.17383 C 312.42788 537.63153 313.32101 542.98334 313.54883 546.06836 L 313.96289 551.67773 L 315.68555 554.90625 C 318.25411 559.71961 319.18555 564.12107 319.18555 571.43945 C 319.18555 578.29476 319.84147 580.90469 322.0625 582.88281 C 322.7479 583.49324 323.48133 584.77591 323.69141 585.73242 C 324.09925 587.58928 325.24694 588.41998 329.06445 589.62109 C 332.21235 590.61152 332.62623 590.60999 335.07227 589.58789 L 337.14844 588.71875 L 337.13672 586.44336 C 337.12972 585.19166 336.88128 582.41588 336.58398 580.27539 C 336.28668 578.13491 335.8721 572.39459 335.66406 567.51758 C 335.45601 562.64057 335.1744 558.32938 335.03711 557.9375 C 334.89982 557.54562 334.51687 553.50427 334.18555 548.95703 C 333.56893 540.49406 332.74227 536.43597 331.41211 535.33203 L 330.66016 534.70703 L 329.95312 538.10938 C 328.4044 545.56951 329.2861 552.58007 332.97656 562.16406 C 334.89263 567.14002 335.12285 568.60106 334.0918 569.23828 C 332.38106 570.29558 328.63875 563.01891 324.52539 550.63867 L 323.13281 546.44727 L 323.10547 540.44922 L 323.07812 534.44922 L 325.06055 530.41992 L 327.04492 526.39062 L 325.44922 523.45703 C 323.35623 519.61148 320.52065 516.21094 319.4082 516.21094 C 318.24255 516.21094 316.41807 520.4886 315.89648 524.44336 C 315.36919 528.44141 314.03595 528.68792 313.4668 524.89258 C 312.96394 521.5393 313.56008 517.27968 314.98828 514.01758 C 317.45835 508.37586 322.14817 509.10031 328.63867 516.12695 L 331.20508 518.90625 L 330.81641 516.21094 C 330.29685 512.60647 329.19956 510.07565 326.64648 506.59766 C 324.07636 503.09645 321.24983 501.24219 318.48438 501.24219 L 316.42773 501.24219 z M 598.73828 501.36133 C 597.83122 501.34937 596.88126 501.58168 595.90234 502.08789 C 593.49084 503.33493 589.97116 506.98509 588.60547 509.6543 C 587.55077 511.71568 586.15459 517.74052 586.62305 518.20898 L 586.625 518.21094 L 586.62695 518.21094 L 586.62891 518.21289 L 586.63086 518.21289 L 586.63281 518.21484 L 586.63477 518.21484 C 586.83435 518.25966 588.58351 516.66006 590.58984 514.59375 L 594.32617 510.74609 L 596.71094 510.42773 L 599.0957 510.10938 L 600.72852 511.39648 C 602.68065 512.93535 604.18749 517.50919 604.17578 521.85742 C 604.15738 528.68661 602.4947 529.41878 601.34766 523.10156 C 600.62207 519.10544 599.31092 516.21094 598.22656 516.21094 C 597.35944 516.21094 595.75425 518.04477 593.29883 521.8418 C 591.06124 525.30196 590.43174 527.75524 591.5957 528.47461 C 592.90664 529.28482 594.60547 536.74425 594.60547 541.68945 L 594.60547 546.68555 L 593.12305 551.37695 C 591.52812 556.4258 586.64862 564.70898 585.26953 564.70898 C 584.09471 564.70898 584.18016 564.21506 586.25977 559.02148 C 587.26843 556.50247 588.37469 552.85231 588.7168 550.91016 L 589.33789 547.37891 L 588.68945 542.55664 C 588.33245 539.90393 587.64988 537.0002 587.17383 536.10352 L 586.30859 534.47266 L 584.98438 537.44336 L 583.66016 540.41406 L 583.375 551.21484 L 583.0918 562.01367 L 584.04102 571.89453 C 584.56296 577.32873 584.88075 582.31276 584.74609 582.9707 C 584.61143 583.62865 584.36118 585.20512 584.19141 586.47266 L 583.88281 588.77734 L 585.78516 590.51367 C 586.92774 591.55725 588.35015 592.25 589.34961 592.25 L 591.01367 592.25 L 593.33398 589.86133 C 594.60983 588.54665 595.99919 586.6357 596.42188 585.61523 L 597.18945 583.75977 L 596.49219 579.17383 C 596.10833 576.65172 595.79666 573.50898 595.79883 572.18945 C 595.80283 569.48911 599.18891 555.66332 601.73633 547.94336 C 604.23705 540.36492 606.47146 531.97463 607.1582 527.58789 C 609.36165 513.51287 605.08769 501.44503 598.73828 501.36133 z M 358.69922 509.98828 L 364.72656 510.01562 L 370.75391 510.04297 L 371.76367 511.05273 L 372.77344 512.0625 L 371.875 512.63086 C 371.38104 512.94321 368.4017 513.20394 365.25391 513.20898 L 359.5293 513.2168 L 358.36719 512.35938 L 357.20508 511.50195 L 357.95312 510.74414 L 358.69922 509.98828 z M 553.35938 510.25781 C 555.92011 510.20543 558.63338 510.30808 559.72852 510.60156 C 560.46946 510.80012 561.07617 511.30355 561.07617 511.7207 C 561.07617 512.78936 559.08434 513.19954 553.85547 513.20898 L 549.33008 513.2168 L 548.16797 512.33008 L 547.00586 511.44336 L 547.9043 510.84375 C 548.39128 510.5179 550.79864 510.3102 553.35938 510.25781 z M 547.34375 515.17188 C 548.3597 515.20467 549.78959 515.53489 551.47461 516.25977 C 555.86663 518.14917 561.29188 524.59375 558.49023 524.59375 C 558.05574 524.59375 556.2356 523.49328 554.44727 522.14844 C 552.65894 520.80358 549.89859 519.03883 548.3125 518.22656 C 544.87318 516.4652 545.10866 515.09973 547.34375 515.17188 z M 372.16797 515.63281 C 373.06273 515.6552 373.67188 515.83696 373.67188 516.20117 C 373.67188 516.52493 372.25619 517.49818 370.52734 518.36328 C 368.79849 519.22839 365.98035 520.98275 364.26562 522.26367 C 360.90693 524.77267 359.90039 525.10435 359.90039 523.69727 C 359.90039 522.25118 364.18663 517.91394 366.78516 516.73047 C 368.38806 516.00045 370.67669 515.5955 372.16797 515.63281 z M 536.36133 515.75977 C 536.67435 515.74252 536.87394 515.75871 536.92773 515.8125 C 538.21974 517.10451 530.68036 521.57411 525.27148 522.72266 C 522.26319 523.36145 514.86898 523.53144 512.2793 523.02148 C 506.01017 521.78696 503.95312 521.25455 500.45312 519.96094 C 497.88495 519.01173 496.41211 518.13454 496.41211 517.55469 L 496.41211 516.64258 L 499.85547 517.02344 C 501.74897 517.23253 505.99211 517.69734 509.28516 518.05664 C 516.55791 518.85016 524.28237 518.36696 531.29297 516.68164 C 533.4558 516.1617 535.42227 515.8115 536.36133 515.75977 z M 382.35352 515.83789 C 382.99301 515.77994 385.14231 516.1447 387.54297 516.73242 C 396.39541 518.89964 400.7617 518.94125 418.50781 517.0332 L 422.33008 516.62305 L 422.05664 517.46484 C 421.68113 518.61462 419.81134 519.44931 413.48633 521.29688 L 408.09766 522.87109 L 401.8125 523.13672 L 395.52539 523.40234 L 392.23438 522.47461 C 386.72458 520.92378 380.93297 517.13148 382.17578 515.88867 C 382.20184 515.86261 382.26216 515.84617 382.35352 515.83789 z M 443.42578 554.23047 C 443.75365 554.23047 444.09033 555.03942 444.17383 556.02734 C 444.25733 557.01525 444.47879 559.23746 444.66602 560.9668 L 445.00781 564.11133 L 447.34766 567.07227 C 448.63495 568.70081 450.93029 570.76218 452.44922 571.65234 L 455.21094 573.27148 L 459.19727 573.33008 C 461.38919 573.36298 464.19284 573.17596 465.42773 572.91406 L 467.67188 572.4375 L 467.67188 573.29883 C 467.67188 575.32375 460.00432 577.04043 455.3125 576.06641 C 451.04517 575.18051 450.55949 575.73437 454.19336 577.3418 L 457.06641 578.61133 L 460.5 578.36328 L 463.93359 578.11523 L 469.54492 574.85547 L 475.15625 571.59375 L 481.44336 571.59375 L 487.73047 571.59375 L 489.12109 568.90039 L 490.50977 566.20508 L 490.21875 563.13867 C 490.05874 561.45185 489.35886 558.95363 488.66211 557.58789 L 487.39453 555.10547 L 488.31641 554.75195 C 489.78778 554.18733 493.15369 557.20802 494.85352 560.61914 C 497.89867 566.72996 496.15498 573.8516 490.84375 576.99609 L 488.92773 578.13086 L 482.53711 578.50977 L 476.14648 578.88867 L 471.91016 581.4043 C 469.58046 582.78834 466.56216 584.31347 465.20312 584.79297 C 462.59854 585.71192 457.0238 585.87458 454.5 585.10547 C 453.67674 584.85459 450.49752 583.33803 447.43359 581.73633 L 441.86133 578.82422 L 435.68164 578.48242 L 429.50391 578.13867 L 427.12695 576.56641 C 424.29076 574.68951 422.65011 571.53541 422.28711 567.25977 L 422.02148 564.12305 L 423.63867 560.81836 C 425.18525 557.65727 428.31421 554.53125 429.92969 554.53125 C 430.74371 554.53125 430.68571 554.92159 429.06055 560.51758 C 427.89667 564.52519 428.31247 568.33091 430.14062 570.41406 L 431.44922 571.9043 L 436.23828 571.52344 L 441.0293 571.14062 L 441.09961 565.08008 C 441.16851 559.13633 442.21967 554.23047 443.42578 554.23047 z M 421.57031 560.48633 L 421.57031 561.32422 C 421.57031 563.15377 416.00119 571.27421 412.44727 574.62695 C 405.73741 580.95697 396.98935 588.32329 394.42969 589.79883 C 393.0559 590.59077 390.68092 592.0145 389.15234 592.96289 L 386.37305 594.6875 L 385.08789 597.67578 C 384.38072 599.31964 383.61099 602.18544 383.37695 604.04297 C 382.94475 607.47334 381.80862 608.81424 381.02344 606.82031 C 380.78572 606.21664 380.58365 603.56029 380.57422 600.91797 L 380.55664 596.11328 L 382.07812 593.13477 L 383.60156 590.1543 L 388.06641 587.66406 C 390.52206 586.29385 393.60856 584.49077 394.92578 583.65625 C 398.50307 581.38991 412.51247 568.9395 415.47266 565.39648 C 416.89433 563.69492 418.84865 561.89397 419.81445 561.39453 L 421.57031 560.48633 z M 497.51562 560.55469 C 498.48216 560.54822 500.93011 562.54303 505.66016 567.07227 C 509.42548 570.67772 514.60986 575.17493 517.18164 577.06445 C 519.75343 578.95397 523.34116 581.81879 525.15234 583.43164 C 526.96352 585.04448 529.99161 587.15345 531.88281 588.11719 C 535.91256 590.17072 538.32398 593.35195 538.75586 597.18359 C 539.20991 601.21191 535.69517 611.65762 534.52344 609.76172 C 534.30856 609.41404 534.20092 606.61275 534.2832 603.53516 L 534.43164 597.93945 L 533.04102 595.70117 L 531.64844 593.46289 L 527.05273 591.06641 C 520.89388 587.85562 512.91233 581.77364 508.37109 576.83203 C 504.09117 572.17479 497.01172 562.5085 497.01172 561.32227 C 497.01172 560.82145 497.16603 560.55703 497.51562 560.55469 z M 404.20898 606.62109 C 403.38685 606.62109 401.16379 609.49516 400.69531 611.16406 C 399.97251 613.73895 400.93403 621.74985 403.28906 632.7793 C 404.44456 638.19091 405.65265 646.08702 405.99805 650.48047 C 406.77588 660.37427 407.67341 663.30667 411.58008 668.73242 C 413.28789 671.10432 415.38409 674.07488 416.23828 675.33398 L 417.79102 677.62305 L 422.20703 679.94531 C 429.79467 683.93251 433.07578 684.48885 436.34961 682.34375 C 438.31375 681.0568 440.04205 677.31406 440.68359 672.95703 C 440.98878 670.88435 441.56071 667.30318 441.95508 664.99805 L 442.67188 660.80664 L 441.34375 657.32422 C 440.13129 654.14592 437.35186 649.55587 433.57031 644.48633 C 431.39675 641.57246 432.49912 641.10317 437.46484 642.83008 C 450.04021 647.20336 468.5752 647.23449 481.2832 642.90234 C 484.03835 641.96312 485.74884 641.64775 485.98828 642.03516 C 486.19524 642.37003 485.56152 643.76636 484.58008 645.13867 C 483.59863 646.51099 481.51199 650.01654 479.94141 652.92773 L 477.08594 658.2207 L 477.07227 661.30859 C 477.06047 664.17049 480.23592 675.13875 482.18555 678.96875 C 483.20408 680.96963 485.70348 682.06055 489.26562 682.06055 C 493.17581 682.06055 496.23493 680.40323 498.90625 676.83789 C 500.00373 675.37312 502.16957 673.26533 503.71875 672.15234 C 507.87135 669.16893 508.35504 668.09768 509.28516 659.81055 C 509.76956 655.49469 510.85397 650.03276 511.89453 646.67383 C 515.04153 636.51538 518.56445 618.44458 518.56445 612.46289 C 518.56445 610.10541 516.62332 607.20271 515.07812 607.25 C 514.52575 607.2669 512.59243 609.17195 510.78125 611.48242 C 502.41662 622.15294 491.21249 630.24237 479.93164 633.75781 C 472.49925 636.07396 466.30852 636.75621 456.08398 636.38477 L 447.01562 636.05469 L 441.99023 634.79688 C 435.88235 633.26897 428.13173 629.71643 423.14258 626.15625 C 419.11871 623.28487 409.7612 613.80506 406.58398 609.38086 C 405.49398 607.86305 404.42506 606.62109 404.20898 606.62109 z M 503.89648 607.64258 L 494.61523 608.04297 C 484.57223 608.47697 466.85437 609.92556 461.9082 610.7168 C 459.95819 611.02875 456.78517 610.92687 453.2168 610.4375 C 446.47178 609.5125 424.56821 607.81978 419.32422 607.81836 C 417.26606 607.8178 415.58203 608.04596 415.58203 608.32422 C 415.58203 610.03418 420.74582 612.58956 429.6582 615.29102 C 433.52415 616.46284 437.12507 617.66828 437.66016 617.96875 L 438.63477 618.51562 L 437.47461 618.96094 C 436.42847 619.36384 428.22003 618.54548 423.66602 617.58398 L 421.86914 617.20508 L 422.67383 618.17773 C 425.50764 621.6081 435.5505 626.33082 443.2832 627.86914 C 450.21549 629.24823 450.70416 629.28138 461.38672 629.06836 L 471.56445 628.86523 L 476.58984 627.61133 C 479.35387 626.92132 483.79924 625.31974 486.46875 624.05273 C 491.29165 621.76366 496.77623 618.161 496.24609 617.63086 C 496.09369 617.47845 492.75881 617.81997 488.83594 618.38867 C 482.10204 619.36489 478.74331 619.22888 479.99609 618.03125 C 480.29813 617.7425 483.5085 616.6599 487.13086 615.625 C 494.62769 613.48316 501.25493 610.62221 502.82617 608.84961 L 503.89648 607.64258 z M 512.07031 705.85742 L 510.37695 706.27539 C 509.44653 706.50524 506.6651 707.8489 504.19531 709.25977 C 501.72552 710.67065 497.94878 712.65605 495.80273 713.67188 C 490.95947 715.96443 486.83203 718.9077 486.83203 720.06836 C 486.83203 722.23829 483.60552 727.89999 480.53125 731.12305 L 477.17383 734.64258 L 472.0957 736.82422 L 467.01758 739.00391 L 464.20117 738.82422 L 461.38672 738.64258 L 461.38672 737.76953 C 461.38672 737.2642 462.41467 736.60178 463.83203 736.19141 C 469.34985 734.59386 473.75493 730.70191 476.31055 725.16992 L 477.83203 721.87695 L 472.60156 721.4707 C 469.72557 721.24727 461.85037 720.79726 455.09961 720.4707 C 442.30135 719.8516 438.2554 719.27696 433.24609 717.36328 C 431.59957 716.73426 428.09538 715.7845 425.46094 715.25391 C 419.24652 714.00231 415.55622 712.3832 410.91016 708.86719 C 408.83457 707.29644 407.01636 706.01172 406.86914 706.01172 C 406.72193 706.01172 406.60156 708.94779 406.60156 712.53711 L 406.60156 719.0625 L 409.91211 722.08789 C 422.35989 733.46447 438.97606 741.61314 453.30273 743.36523 C 457.53704 743.88308 467.50568 743.12712 472.16406 741.93555 C 485.34921 738.56291 497.39247 731.90491 507.5957 722.34766 L 511.29297 718.88281 L 511.68164 712.37109 L 512.07031 705.85742 z M 608.5 722.3457 C 607.67388 722.35788 602.17538 725.59935 600.04883 727.35156 C 599.91511 727.46174 600.61829 728.83465 601.61133 730.40234 C 611.65254 746.25427 614.96289 751.72388 614.96289 752.4668 C 614.96289 753.45505 612.18727 754.71414 611.26562 754.14453 C 610.50645 753.67533 604.28853 744.05994 599.78906 736.39648 C 597.90395 733.18575 596.05226 730.55859 595.67383 730.55859 C 594.45629 730.55859 587.44052 735.02299 587.42969 735.80469 C 587.42369 736.22015 589.94504 740.80166 593.03125 745.98438 C 596.11746 751.16711 599.32881 756.76953 600.16797 758.43555 C 601.00713 760.10157 602.75155 762.8018 604.04297 764.43555 C 606.08818 767.02294 610.99293 774.98545 620.33203 790.88086 C 621.73475 793.26832 623.17239 795.22266 623.52734 795.22266 C 623.88229 795.22266 626.02212 794.12454 628.2832 792.78125 C 630.5443 791.43796 632.31239 790.02228 632.21094 789.63672 C 632.10949 789.25115 628.8217 783.57025 624.90625 777.01172 L 617.78711 765.08594 L 618.36133 764.17773 C 618.67642 763.6782 619.406 762.98218 619.98242 762.63086 L 621.0293 761.99219 L 622.35156 763.62891 C 623.07815 764.52877 626.62523 770.15192 630.23438 776.125 C 633.84353 782.09808 637.08839 787.09741 637.44531 787.23438 C 638.09921 787.48529 644.54427 783.86002 645.95898 782.44531 L 646.7207 781.68359 L 640.75195 772.00391 C 635.10965 762.85221 626.06457 748.63035 614.44336 730.63672 C 611.59969 726.23373 608.95447 722.50738 608.56445 722.35547 C 608.5478 722.34898 608.52665 722.34531 608.5 722.3457 z M 313.95508 726.36719 C 313.62302 726.36719 309.28556 732.49658 304.31641 739.98828 C 299.34726 747.47997 294.19582 755.00956 292.86914 756.71875 C 291.54245 758.42795 289.66693 761.16674 288.70117 762.80469 L 286.94531 765.78125 L 287.94727 766.64062 C 288.49836 767.11299 292.78982 769.85488 297.48242 772.73438 C 302.17502 775.61388 306.01093 778.283 306.00781 778.66406 C 305.99881 779.81886 301.30525 786.83984 300.54297 786.83984 C 299.68936 786.83984 296.81082 785.20148 286.72266 778.9707 C 282.53419 776.38377 278.83539 774.26758 278.50391 774.26758 C 277.73592 774.26758 273.07571 781.55341 273.45312 782.16406 C 274.21015 783.38896 329.02273 815.53731 330.40039 815.56445 C 330.80537 815.57245 331.94796 814.1644 332.93945 812.43555 C 333.93093 810.70669 334.73895 808.88849 334.73633 808.39453 C 334.73333 807.86513 330.18915 804.83051 323.66602 801.00195 C 316.95995 797.06604 312.59961 794.14512 312.59961 793.58984 C 312.59961 792.47325 315.87191 786.65449 317.04883 785.67773 L 317.89648 784.97266 L 326.1582 789.79883 C 330.70162 792.45282 334.73861 794.62305 335.12891 794.62305 C 335.90445 794.62305 339.42434 789.97071 341.07617 786.76172 C 341.6473 785.65219 342.95942 783.75372 343.99219 782.54297 C 345.91792 780.28535 359.90039 755.24741 359.90039 754.05664 C 359.90039 753.69277 357.81188 752.24516 355.25977 750.83984 C 350.39939 748.16347 333.3672 737.97906 321.51172 730.66016 C 317.68721 728.29914 314.28713 726.36719 313.95508 726.36719 z M 584.12695 740.87695 L 578.43945 744.11523 C 575.31105 745.897 569.18166 749.25714 564.81836 751.58008 C 560.45507 753.90302 556.88477 756.0919 556.88477 756.44531 C 556.88477 757.25389 561.01728 764.6875 561.4668 764.6875 C 561.6495 764.6875 563.65117 763.71358 565.91602 762.52344 C 568.18088 761.33329 570.38594 760.49377 570.81445 760.6582 C 572.16535 761.17659 579.57511 776.69607 580.59961 781.15234 C 581.12956 783.45748 581.56552 787.76867 581.56836 790.73242 L 581.57227 796.12109 L 580.33789 799.71289 L 579.10352 803.30469 L 582.79492 807.04688 C 584.82548 809.10504 586.67758 810.78906 586.91016 810.78906 C 587.14274 810.78906 588.02447 809.32846 588.86914 807.54297 C 591.12414 802.77627 592.20898 797.96283 592.20898 792.73633 C 592.20898 790.19051 592.48704 787.93616 592.82617 787.72656 C 593.16529 787.51698 594.95655 788.35011 596.80664 789.57812 C 600.73283 792.18418 607.44033 794.66353 610.98242 794.81641 L 613.46484 794.92383 L 613.36133 789.93164 C 613.30473 787.18573 613.12374 784.80343 612.95898 784.63867 C 612.79421 784.4739 611.49355 784.07836 610.06836 783.75977 C 605.55719 782.75133 599.25092 779.26204 595.07031 775.46289 C 589.34508 770.26009 580.68144 756.73319 581.57812 754.39648 C 581.75752 753.92896 583.5496 752.66949 585.56055 751.59766 C 587.57151 750.52584 589.2168 749.36004 589.2168 749.00781 C 589.2168 748.14264 585.80279 742.22664 584.87109 741.47656 L 584.12695 740.87695 z M 319.03711 741.45312 C 319.8745 741.46371 323.26179 743.14057 327.01953 745.41211 C 330.77918 747.6848 336.05298 750.805 338.73828 752.3457 C 341.42359 753.8864 343.93632 755.52714 344.32227 755.99219 L 345.02344 756.83789 L 342.48633 761.21094 C 341.09126 763.61665 339.38749 766.30017 338.69922 767.17383 C 338.01094 768.0475 336.63831 770.15429 335.65039 771.85547 C 334.66248 773.55665 333.11274 776.00823 332.20508 777.30273 L 330.55469 779.65625 L 329.21094 779.625 C 328.47207 779.6085 325.98092 778.45246 323.67578 777.05664 C 321.37065 775.66082 317.7596 773.38478 315.65039 771.99805 C 313.54118 770.61131 311.60621 769.47656 311.35156 769.47656 C 310.08291 769.47656 303.62091 765.03111 303.63477 764.16797 C 303.66437 762.32262 305.71775 758.7341 308.89453 754.97656 C 310.64354 752.9078 313.34912 749.06022 314.9082 746.42578 C 316.77521 743.27102 318.15945 741.57442 318.96289 741.45703 C 318.98452 741.45387 319.0101 741.45278 319.03711 741.45312 z M 545.61523 757.99414 C 544.32247 757.91446 536.06409 760.72108 535.18164 761.60352 C 534.9054 761.87977 539.60322 776.96569 545.62305 795.12891 L 556.56836 828.15234 L 557.59375 828.15234 C 558.15745 828.15234 560.78801 827.46844 563.43945 826.63086 C 566.09089 825.79329 568.25977 824.91179 568.25977 824.67188 C 568.25977 824.43196 565.96814 817.37049 563.16602 808.98047 C 560.3639 800.59045 558.18269 793.43055 558.32031 793.07031 C 558.45793 792.71006 560.21287 791.80288 562.21875 791.05273 L 565.86523 789.6875 L 565.86523 788.6582 C 565.86523 787.30985 563.6023 780.74487 562.89258 780.03516 C 562.55698 779.69956 560.91086 780.01987 558.68164 780.85352 C 556.50925 781.66594 554.80065 782.00182 554.48047 781.68164 C 554.18374 781.38491 552.17522 776.06216 550.01758 769.85352 C 547.85995 763.64488 545.95088 758.33276 545.77539 758.04883 C 545.75537 758.01644 545.70142 757.99945 545.61523 757.99414 z M 368.8418 759.71094 C 368.09361 760.4795 365.88672 766.40903 365.88672 767.65234 L 365.88672 768.7793 L 376.21484 772.18945 C 381.89536 774.0658 386.86538 776.00522 387.25781 776.49805 L 387.9707 777.39453 L 385.66211 783.95117 C 382.70568 792.34433 380.3537 796.19357 375.22656 801.04297 C 369.20666 806.73677 362.05885 809.5918 353.82227 809.5918 C 351.60575 809.5918 349.65685 809.80975 349.49219 810.07617 C 349.32754 810.34259 349.00397 812.66091 348.77148 815.22656 L 348.34766 819.89062 L 349.18359 820.41992 C 350.46808 821.23325 356.18098 821.06779 362.03516 820.04688 C 377.51799 817.3469 388.98858 808.01553 395.2168 793.05469 C 397.01462 788.73612 400.73615 776.52025 401.50977 772.39648 L 401.91016 770.25977 L 385.61328 764.74219 C 376.64934 761.70768 369.10206 759.4436 368.8418 759.71094 z M 516.27148 769.35742 C 511.70674 769.35742 508.49492 770.29079 505.01172 772.62891 L 502.125 774.56641 L 500.21484 778.26758 C 496.73644 785.00678 496.89569 792.31462 500.86328 808.06641 C 503.28959 817.69916 506.06626 823.96672 509.60938 827.81055 C 514.21673 832.80893 517.41669 834.19808 523.6875 833.92188 L 527.91211 833.73633 L 531.22266 832.2207 C 538.1567 829.0462 541.37069 823.95773 541.79688 815.47852 L 542.05859 810.28906 L 541.02148 805.59961 C 539.1745 797.23959 535.89327 786.64319 533.79102 782.24805 C 531.31845 777.07868 527.25033 772.81649 522.87305 770.8125 L 519.69336 769.35742 L 516.27148 769.35742 z M 411.69141 769.71484 C 411.60022 769.71554 411.54229 769.72529 411.52344 769.74414 C 411.24218 770.0254 406.14762 791.19685 403.01562 805.10156 C 402.05136 809.38253 400.03512 817.94736 398.5332 824.13477 C 397.03129 830.32223 395.7402 835.96027 395.66406 836.66211 L 395.52539 837.9375 L 400.61328 839.28125 C 403.41237 840.02045 406.08382 840.57975 406.54883 840.52539 L 407.39453 840.42773 L 409.61328 830.84766 C 410.83341 825.57877 414.02817 811.70205 416.71289 800.01172 C 419.3976 788.32138 421.85694 777.62681 422.17969 776.24609 C 422.50245 774.86537 422.76758 773.35282 422.76758 772.88281 L 422.76758 772.02734 L 417.2832 770.74805 C 414.64375 770.13248 412.32972 769.70996 411.69141 769.71484 z M 486.77148 773.51758 L 481.26367 773.94727 C 478.2342 774.18301 475.65836 774.47107 475.53906 774.58789 C 475.41975 774.70472 475.63604 781.07966 476.01953 788.75391 C 477.88265 826.04 478.45415 836.55386 478.82227 840.27734 L 479.22266 844.31836 L 484.8418 844.31836 L 490.46289 844.31836 L 490.83203 843.35742 C 491.03492 842.82867 490.88244 836.83346 490.49414 830.03516 C 487.99683 786.31314 487.3727 776.20633 487.08984 774.93945 L 486.77148 773.51758 z M 431.0957 777.09961 C 430.8562 777.35243 430.56718 780.25382 430.45508 783.54688 L 430.25195 789.53516 L 436.48047 789.94727 C 440.5489 790.21701 442.89299 790.63215 443.23828 791.14453 C 443.9832 792.2499 443.22484 803.2574 442.13477 807.16602 C 440.1189 814.3942 435.61529 820.90351 430.30859 824.25781 L 427.55664 825.99609 L 427.55664 827.31055 C 427.55664 828.96055 429.87764 836.63947 430.60742 837.4043 C 431.37388 838.2075 434.96907 836.80056 438.33984 834.37891 C 441.07993 832.41038 445.42291 827.33846 447.64258 823.51367 C 448.26368 822.44343 449.04999 821.56758 449.39062 821.56836 C 449.73125 821.56836 450.78727 823.05893 451.73828 824.87891 C 453.96946 829.14898 459.372 834.73819 463.18164 836.71875 C 464.82817 837.57476 466.35871 838.28936 466.58203 838.30469 C 466.80534 838.32029 467.51652 836.91635 468.16211 835.1875 C 468.8077 833.45865 469.68718 830.86698 470.11719 829.42773 L 470.89844 826.81055 L 469.13672 825.55078 C 462.50726 820.80777 458.28259 814.79719 456.61914 807.74023 C 455.69335 803.81267 455.33808 791.66743 456.14648 791.58398 C 456.39346 791.55848 459.1548 791.49047 462.2832 791.43359 C 465.4116 791.37679 468.30906 791.11211 468.7207 790.8457 L 469.46875 790.36133 L 469.46875 785.12891 C 469.46875 781.85669 469.19923 779.62501 468.75 779.17578 L 468.03125 778.45703 L 459.26758 778.45703 C 454.44676 778.45703 446.23278 778.04863 441.01562 777.54883 C 435.79849 777.04904 431.33521 776.8468 431.0957 777.09961 z M 512.47461 779.95508 L 515.18164 779.95508 L 517.88867 779.95508 L 519.80078 781.75195 C 520.85288 782.73986 522.3424 784.94855 523.11133 786.66016 C 524.87139 790.57799 528.97656 805.46343 529.93555 811.4082 L 530.66016 815.9043 L 529.98633 818.4043 C 529.10608 821.6733 526.94211 823.36328 523.63672 823.36328 L 521.08594 823.36328 L 519.21484 821.61328 C 516.85519 819.40903 515.52817 816.40694 512.9375 807.40625 C 510.39549 798.57465 508.67531 788.38442 509.22852 785.43555 C 509.45372 784.23517 510.27657 782.51041 511.05664 781.60352 L 512.47461 779.95508 z " />
    <circle
       style="fill:none;fill-opacity:1;stroke:#314baa;stroke-width:30;stroke-dasharray:none;stroke-opacity:1"
       id="path2"
       cx="459.65799"
       cy="551.01862"
       r="350" />
  </g>
</svg>
